<svg xmlns="http://www.w3.org/2000/svg" version="1.1" width="600px" height="600px" xlink="http://www.w3.org/1999/xlink" style="overflow:hidden!important;"><g id="svga-group-wrapper" transform="scale(3 3)"><g id="svga-group-backs-single"></g><g id="svga-group-subwrapper" ><g id="svga-group-hair-back" ><path id="SvgjsPath9966" d="M100.5,100.5h-1v-1h1V100.5z" fill="#080806" stroke-width="none" opacity="1"></path></g><g id="svga-group-humanbody-single"><path id="SvgjsPath8979" d="M195.417 199.778c-2.196-4.746-8.195-11.779-14.86-13.722 -8.239-2.403-26.837-5.308-33.733-6.923 -5.528-1.296-16.662-11.294-20.564-14.65 -0.7-0.6-1.273-1.839-1.287-2.76 -0.139-10.864 4.195-39.724 4.195-39.724H100 70.833c0 0 4.334 28.859 4.193 39.724 -0.011 0.921-0.587 2.16-1.285 2.76 -3.902 3.356-15.036 13.354-20.564 14.65 -6.897 1.615-25.495 4.619-33.733 7.022 -6.667 1.942-12.664 8.876-14.86 13.622 -3.708 8.008-4.584 22.5-4.584 35h100 100C200 222.278 199.123 207.786 195.417 199.778z" fill="#ffffff" stroke-width="none" opacity="1" stroke="none"></path><path id="SvgjsPath8980" d="M159.156 184.058c24.342 3.542 34.586 8.708 37.794 50.721H200c0-12.5-0.877-26.992-4.583-35 -2.196-4.746-8.195-11.779-14.86-13.722 -8.239-2.403-26.837-5.308-33.733-6.923 -5.528-1.296-18.242-12.069-21.643-16.35 3.36 4.704 12.791 15.605 21.054 18.46C150.188 182.61 153.48 183.232 159.156 184.058zM53.766 181.244c8.263-2.854 17.693-13.756 21.054-18.46 -3.4 4.28-16.114 15.054-21.643 16.35 -6.896 1.615-25.494 4.619-33.733 7.022 -6.665 1.942-12.664 8.876-14.86 13.622 -3.706 8.008-4.583 22.5-4.583 35h3.05c3.188-41.744 13.475-47.183 37.794-50.721C46.52 183.232 49.813 182.61 53.766 181.244z" fill="#ffffff" stroke-width="none" opacity="1" stroke="none"></path><path id="SvgjsPath8981" d="M95.646 197.62c0 0-5.074-1.609-7.083-2.379 -10.449-4.009-44.395-6.607-44.395-6.607s35.754 1.419 43.644 2.779c-0.458-4.767-3.017-20.004-3.017-20.004s5.149 16.815 6.409 21.057C91.878 194.734 95.646 197.62 95.646 197.62zM106.445 196.278c-0.089 0.073-0.191 0.168-0.302 0.268C106.256 196.461 106.358 196.372 106.445 196.278zM95.646 197.62c0 0 2.893 2.992 4.347 3.03 1.91 0.051 4.828-2.899 6.151-4.104 -1.265 0.957-4.159 1.391-5.31 1.436C99.504 198.033 95.646 197.62 95.646 197.62zM116.664 190.101c-1.545 0.248-4.386 0.789-4.386 0.789l2.287-14.89c-0.646 3.071-4.474 16.211-8.12 20.278 1.91-1.616 6.158-2.391 8.324-2.704 10.236-1.484 10.232-1.483 41.062-4.94C155.831 188.634 126.76 188.479 116.664 190.101z" fill="#f0d8d8" stroke-width="none" opacity="1" stroke="none"></path><path id="SvgjsPath8982" d="M195.417 199.778c-2.196-4.746-8.195-11.779-14.86-13.722 -8.239-2.403-26.837-5.308-33.733-6.923 -5.528-1.296-16.662-11.294-20.564-14.65 -0.7-0.6-1.273-1.839-1.287-2.76 -0.139-10.864 4.195-39.724 4.195-39.724H100 70.833c0 0 4.334 28.859 4.193 39.724 -0.011 0.921-0.587 2.16-1.285 2.76 -3.902 3.356-15.036 13.354-20.564 14.65 -6.897 1.615-25.495 4.619-33.733 7.022 -6.667 1.942-12.664 8.876-14.86 13.622 -3.708 8.008-4.584 22.5-4.584 35h100 100C200 222.278 199.123 207.786 195.417 199.778z" fill="none" stroke="#d19292" stroke-width="1.5" opacity="1"></path></g><g id="svga-group-chinshadow-single"><path id="SvgjsPath9750" d="M75.517 163.052c6.979 4.54 16.307 8.814 24.485 8.814 7.828 0 17.345-4.309 24.458-8.869 -0.145-0.428-0.233-0.862-0.239-1.264 -0.126-9.877 3.345-34.021 4.076-38.983H71.703c0.73 4.963 4.202 29.106 4.074 38.982C75.772 162.146 75.676 162.603 75.517 163.052z" fill="url(#SvgjsLinearGradient9751)" opacity="1"></path></g><g id="svga-group-clothes-single" ><path id="SvgjsPath9760" d="M128.857 237.978H70.72v-56.183c22.25 4.699 36.88 4.337 58.138 0V237.978z" fill="#f3f1f3" stroke-width="none" opacity="1"></path><path id="SvgjsPath9761" d="M107.44 237.709c-2.775 0-10.727 0.208-16.512-0.23l-0.01-0.171c-0.818-18.658 1.129-30.719 4.537-39.288l0.048-0.123 -0.093-0.093c-0.905-0.904-2.425-1.935-4.034-3.025 -1.611-1.093-3.275-2.221-4.336-3.246 0.625-0.732 1.395-1.454 2.348-2.201 0.245-0.125 1.162-0.843 5.974-4.971 0.214-0.184 0.345-0.296 0.362-0.31 0.818-0.178 2.138-0.293 3.738-0.293 2.183 0 4.731 0.221 6.512 0.563 1.561 1.458 3.451 5.329 4.158 7.17 -0.976 2.291-2.128 3.129-3.717 4.284 -0.774 0.563-1.652 1.201-2.652 2.112l-0.083 0.075 0.021 0.111c4.026 20.31 4.027 25.054 4.027 29.642 0.001 2.021 0.001 6.609 0.339 9.985C107.917 237.707 107.704 237.709 107.44 237.709z" fill="#131111" stroke-width="none" opacity="1"></path><path id="SvgjsPath9762" d="M110.35 191.495c-0.754-1.995-2.71-5.93-4.28-7.359 -2.876-0.563-7.983-0.843-10.47-0.24 -0.108 0.088-6.248 5.383-6.31 5.26 -0.906 0.708-1.788 1.504-2.52 2.39 2.061 2.076 6.655 4.556 8.5 6.4 -3.65 9.18-5.33 21.59-4.55 39.38 0.01 0.11 0.01 0.23 0.02 0.34 6.756 0.52 16.55 0.331 17.55 0.223 -1.16-11.307 1.438-10.455-4.39-39.853C106.968 195.241 108.865 195.04 110.35 191.495zM105.1 210.535c-0.021-0.05-0.04-0.1-0.051-0.13 2 10.55 1.38 18.632 2.891 26.972 -4.736-0.318-12.014-0.052-16.771-0.052 0.369-7.198 1.188-31.684 4.74-39.74 0.17-0.046 0.339-0.084 0.509-0.125l-1.032 34.736 2.747-35.066c0.02-0.002 0.04-0.005 0.06-0.008l1.801 32.605 0.417-32.734c0.026 0.001 0.051-0.001 0.077 0l4.199 36.355 -2.3-36.137c0.314 0.063 0.629 0.141 0.942 0.233 0.03 0 0.07 0.01 0.1 0.03C103.533 198.476 104.365 205.876 105.1 210.535zM104.219 196.726c-2.774-1.251-6.363-1.026-9.129 0.24 -1.681-1.813-4.08-3.077-7.53-5.391 0.55-0.479 1.26-1.07 2.21-1.81 0.08 0 3.48-2.771 3.54-2.83 0.92-0.84 1.74-1.79 2.52-2.62 2.93-0.12 7.23 0.02 9.82 0.14 1.5 1.876 2.931 4.696 4.01 6.94C107.699 194.266 105.759 195.545 104.219 196.726z" fill="#000000" stroke-width="none" opacity="1"></path><path id="SvgjsPath9763" d="M78.196 213.077c-11.534-40.071-6.325-29.581-9.399-45.32 2.028-4.813 3.958-10.44 5.042-11.598l0.08-0.086c2.292 24.007 8.958 13.636 23.784 27.722C89.228 189.449 81.372 204.127 78.196 213.077zM131.193 167.758c-1.448-3.702-4.077-9.127-5.215-10.331 1.424 20.678-15.146 16.551-24.35 26.2 8.812 5.713 17.173 20.66 20.172 29.455C134.92 169.568 127.85 188.673 131.193 167.758z" fill="#f3f1f4" stroke-width="none" opacity="1"></path><path id="SvgjsPath9764" d="M125.801 156.967c0 5.137-0.42 9.162-1.262 10.339 -2.443 5.809-13.103 9.853-16.39 11.51 -2.495 1.227-4.942 2.809-6.83 4.85 3.813 2.476 5.705 3.383 12.93 14.44 4.246 7.109 6.539 12.448 7.561 15.64 13.378-44.331 6.222-24.978 9.59-46.01C129.814 163.65 126.801 157.885 125.801 156.967zM129.449 176.495c-1.957 18.078-3.491 14.485-7.74 34.181 -2.716-8.644-11.075-22.913-19.43-27.091 3.937-2.957 5.031-3.131 9.729-5.279 14.396-6.42 14.985-12.385 14.138-20.271 1.207 1.423 3.125 6.161 4.692 9.521C129.979 170.702 129.589 175.194 129.449 176.495zM79.199 171.896c-4.408-3.649-3.16-8.162-5.189-16.215 -0.902 1-3.146 6.632-5.42 12.055 0.557 2.796 0.681 7.389 0.76 8.84 0.559 12.202 1.75 12.765 8.83 37.16 3.031-8.905 11.558-24.37 20.24-30.009C91.489 177.401 82.765 174.999 79.199 171.896zM84.659 197.405c-2.221 3.666-4.517 7.48-6.37 13.28 -4.442-20.269-5.999-16.964-7.73-34.16 -0.32-2.971-0.617-6.027-1.4-8.96 1.638-3.588 3.981-10.281 4.731-10.995 1.366 7.078 0.066 13.462 5.669 16.995 2.621 1.996 11.104 5.32 17.52 10.36C93.188 186.235 91.094 187.596 84.659 197.405z" fill="#cfc8d7" stroke-width="none" opacity="1"></path><path id="SvgjsPath9765" d="M120.319 209.824l-1.209-2.654c0 0 9.148-28.175 10.743-36.225C130.765 179.299 120.319 209.824 120.319 209.824zM78.879 208.721l1.436-3.259c0 0-8.573-26.467-10.168-34.517C69.235 179.299 78.879 208.721 78.879 208.721z" fill="#e1e0e1" stroke-width="none" opacity="1"></path><path id="SvgjsPath9766" d="M124.787 195.605c7.065-20.834 2.756-22.551 6.305-29.469 0.134-0.261 1.396 1.046 1.533 1.64 1.306 5.658 53.349 17.338 54.994 18.598 1.456 1.058 5.65 3.137 5.65 3.137 4.937 9.07 7.762 10.698 9.15 34.984 0.13 3.083-0.061 11.801-0.061 14.141l-85.559-0.676C117.004 230.169 117.999 216.15 124.787 195.605zM75.213 195.605c-7.065-20.834-2.756-22.551-6.305-29.469 -0.134-0.261-1.396 1.046-1.533 1.64 -1.306 5.658-53.349 17.338-54.994 18.598 -1.456 1.058-5.65 3.137-5.65 3.137 -4.937 9.07-7.762 10.698-9.15 34.984 -0.13 3.083 0.061 11.801 0.061 14.141l85.559-0.676C82.996 230.169 82.001 216.15 75.213 195.605z" fill="#000000" stroke-width="none" opacity="1"></path><path id="SvgjsPath9767" d="M130.307 190c-4.552 16.387-10.771 31.116-13.506 47.96 -0.89-0.007 1.491-22.695 7.986-42.354 7.065-20.834 2.756-22.551 6.305-29.469 0.077-0.15-0.619 1.976-0.223 2.432C130.723 176.296 132.625 182.272 130.307 190zM69.693 190c4.552 16.387 10.771 31.116 13.506 47.96 0.89-0.007-1.491-22.695-7.986-42.354 -7.065-20.834-2.756-22.551-6.305-29.469 -0.077-0.15 0.619 1.976 0.223 2.432C69.277 176.296 67.375 182.272 69.693 190z" fill="#000000" stroke-width="none" opacity="1"></path><path id="SvgjsPath9768" d="M152.436 186.031c0 0-2.284 2.561-8.636 6.923 5.313-5.885 7.761-8.249 7.761-8.249L152.436 186.031zM154.611 197.906l-1.528-1.367c-4.538 13.781-7.571 20.587-12.828 36.618C147.799 218.831 149.599 213.745 154.611 197.906zM48.439 184.705c0 0 2.447 2.364 7.761 8.249 -6.352-4.362-8.636-6.923-8.636-6.923L48.439 184.705zM59.745 233.157c-5.257-16.031-8.29-22.837-12.828-36.618l-1.528 1.367C50.401 213.745 52.201 218.831 59.745 233.157z" fill="#000000" stroke-width="none" opacity="1"></path><path id="SvgjsPath9769" d="M179.409 219.335c0-11.596 3.11-18.351 9.615-28.142 0.608 0.372 0.931 0.543 1.345 0.875C183.452 200.651 182.078 208.659 179.409 219.335zM141.312 230.703c6.113-16.703 8.06-23.228 12.107-34.388 -1.15-0.351-8.671-2.985-9.819-3.346 0.41 1 3.113 1.822 7.822 4.709C151.422 197.679 146.333 213.082 141.312 230.703zM149.533 184.577c0 0-3.352 4.14-6.664 8.328 3.388-2.67 5.748-5.644 8.691-8.2 -3.994-3.368-10.511-8.524-14.721-12.089C140.163 176.188 149.533 184.577 149.533 184.577zM202.073 238.634l0.286 0.002c0-2.34 0.19-11.058 0.061-14.141 -1.389-24.286-4.214-25.914-9.15-34.984 0 0-4.194-2.079-5.65-3.137 -1.334-1.021-38.794-9.922-52.49-15.88 16.011 10.971 46.282 15.027 55.24 21.574C194.702 195.235 200.535 222.337 202.073 238.634zM9.613 192.037c0.542-0.383 0.619-0.366 1.168-0.729 6.505 9.791 9.809 16.431 9.809 28.026C17.922 208.659 16.08 200.318 9.613 192.037zM48.578 197.679c4.709-2.887 7.412-3.709 7.822-4.709 -1.148 0.36-8.669 2.995-9.819 3.346 4.048 11.16 5.994 17.685 12.107 34.388C53.667 213.082 48.578 197.679 48.578 197.679zM63.16 172.616c-4.21 3.564-10.727 8.721-14.721 12.089 2.943 2.557 5.304 5.53 8.691 8.2 -3.313-4.188-6.664-8.328-6.664-8.328S59.837 176.188 63.16 172.616zM9.631 192.068c8.958-6.547 39.229-10.604 55.24-21.574 -13.696 5.958-51.156 14.858-52.49 15.88 -1.456 1.058-5.65 3.137-5.65 3.137 -4.937 9.07-7.762 10.698-9.15 34.984 -0.13 3.083 0.061 11.801 0.061 14.141l0.286-0.002C-0.535 222.337 5.298 195.235 9.631 192.068z" fill="#0f0f0f" stroke-width="none" opacity="1"></path><path id="SvgjsPath9770" d="M132.246 166.374c-0.049-0.293-0.443-0.634-0.738-0.657 -0.296-0.023-0.432 0.458-0.567 0.722 -3.549 6.918 0.414 8.333-6.651 29.167 -6.788 20.545-7.584 34.862-7.787 42.653l85.857 0.377c0-2.34 0.489-11.058 0.359-14.141 -1.389-24.286-4.313-26.113-9.25-35.184 0 0-4.394-2.179-5.85-3.236 -4.889-3.742-0.59 0.023-22.03-6 -17.576-5.135-18.525-6.577-24.899-8.35 -1.288-0.369-4.057-0.822-6.95-2.851C133.475 168.689 132.341 166.944 132.246 166.374zM116.974 237.31c3.729-23.564 6.085-29.73 11.296-47.274 3.522-11.104 1.576-17.408 3.254-22.54 0.088-0.268 0.467-0.282 0.571-0.017 2.434 6.214 9.238 7.656 18.834 17.047 -5.813 5.813-7.309 7.38-8.06 8.38 0.864 0.438 5.582 2.229 9.9 3.9 -0.245 0.767-13.415 38.02-13.57 38.52 10-21.578 11.292-28.211 14.22-39.01 -0.812-0.612-7.892-3.212-9.09-3.64 4.274-4.424 5.51-5.396 7.53-7.971 1.622 0-15.874-13.318-16.73-14.211 0.462 0.364 2.752 1.391 3.01 1.491 14.682 5.166 3.065 2.829 35.2 12.001 3.072 0.781 7.355 1.567 10.53 1.879 0.218 0.02 5.395 2.727 8.35 3.97 -7.189 7.475-11.797 17.133-12.81 29.5 3.219-12.666 4.951-19.29 13.14-28.819 7.62 15.422 6.755 13.195 9.23 47.71C181.167 237.413 149.559 237.227 116.974 237.31zM66.261 168.875c-2.894 2.028-5.662 2.481-6.95 2.851 -6.374 1.772-7.323 3.215-24.899 8.35 -21.44 6.023-17.142 2.258-22.03 6 -1.456 1.058-5.85 3.236-5.85 3.236 -4.937 9.07-7.861 10.897-9.25 35.184 -0.13 3.083 0.359 11.801 0.359 14.141l85.857-0.377c-0.203-7.791-0.999-22.108-7.787-42.653 -7.065-20.834-3.103-22.249-6.651-29.167 -0.136-0.264-0.271-0.745-0.567-0.722 -0.295 0.023-0.689 0.364-0.738 0.657C67.659 166.944 66.525 168.689 66.261 168.875zM-1.779 238.226c2.476-34.515 1.61-32.288 9.23-47.71 8.188 9.529 9.921 16.153 13.14 28.819 -1.013-12.367-5.62-22.025-12.81-29.5 2.955-1.243 8.132-3.95 8.35-3.97 3.175-0.312 7.458-1.098 10.53-1.879 32.135-9.172 20.519-6.835 35.2-12.001 0.258-0.101 2.548-1.127 3.01-1.491 -0.856 0.893-18.353 14.211-16.73 14.211 2.021 2.575 3.256 3.547 7.53 7.971 -1.198 0.428-8.278 3.027-9.09 3.64 2.928 10.799 4.22 17.432 14.22 39.01 -0.155-0.5-13.325-37.753-13.57-38.52 4.318-1.672 9.036-3.463 9.9-3.9 -0.751-1-2.247-2.567-8.06-8.38 9.596-9.391 16.4-10.833 18.834-17.047 0.104-0.266 0.483-0.251 0.571 0.017 1.678 5.132-0.269 11.436 3.254 22.54 5.211 17.544 7.567 23.71 11.296 47.274C50.441 237.227 18.833 237.413-1.779 238.226z" fill="#000000" stroke-width="none" opacity="1"></path></g><g id="svga-group-head" ><g id="svga-group-ears-left" ><path id="SvgjsPath9722" d="M45.671 84.344c-1.485-2.462-6.327-9.199-10.031-8.254 -3.012 0.772-2.973 4.971-3.206 7.455 -0.34 3.644-0.464 9.992 0.525 12.568 0.951 2.473 3.96 7.252 5.828 9.075 2.299 2.235 5.97 9.358 6.422 10.097 0.711 1.168 2.137 2.84 4.325 2.708 3.071-0.185 5.724-3.087 5.965-4.485C56.8 105.918 49.536 90.75 45.671 84.344z" fill="#ffffff" stroke="#d19292" stroke-width="1.5" opacity="1"></path><path id="SvgjsPath9723" d="M44.2 99.341c-0.143-0.563 0.007-1.513 0.154-2.429 0.133-0.835 0.258-1.624 0.182-2.182 -0.289-2.09-1.915-6.06-2.976-8.212 -1.223-2.476-3.199-5.595-5.679-6.399 -1.024-0.333-1.699 0.065-2.089 0.468 -0.288 0.296-0.353 0.645-0.259 0.687 0.095 0.041 0.307-0.248 0.617-0.519 0.254-0.222-0.508-0.04 0 0 -0.205 1.04-0.865 6.302-0.41 10.143 0.358 3.022 1.05 5.279 1.263 5.617 0.031 0.356 0.083 0.705 0.16 1.043 1.002 4.41 7.518 10.177 9.034 11.82 0.28 0.303 0.574 0.483 0.646 0.409s-0.101-0.373-0.379-0.678c-1.498-1.632-7.971-7.381-8.939-11.635 -1.027-4.514 3.912-11.207 4.699-12.623 0.401 0.665 0.742 1.303 1.004 1.835 0.207 0.417 0.434 0.906 0.67 1.435 -0.463 0.738-5.118 6.127-3.934 10.441 0.438 1.591 3.822 3.642 5.131 4.203 0.72 0.31 0.99 0.772 1.304 1.306 0.364 0.624 0.033 2.229 1.23 2.739 0.244 0.104 0.464 0.146 0.659 0.146 0.338 0 0.594-0.13 0.783-0.284 0.02 0.271 0.019 0.619 0.009 0.941 -0.012 0.418 0.047 0.609 0.148 0.617 0.103 0.009 0.21-0.174 0.223-0.587 0.017-0.51 0.014-1.141-0.077-1.444 -0.269-0.889-1.088-1.894-1.957-2.957C44.563 102.197 44.422 100.213 44.2 99.341zM34.969 95.432c-2.348-6.923 1.283-13.229 1.81-14.179 1.012 0.399 2.562 2.193 3.221 3.235C39.52 85.321 35.067 90.775 34.969 95.432zM45.772 106.464c-1.084-0.462-0.706-1.984-1.056-2.584 -0.318-0.542-0.646-1.102-1.479-1.46 -0.18-0.078-0.379-0.196-0.583-0.332 -2.682-6.075 0.293-8.73 1.039-9.273 0.229 0.742 0.399 1.423 0.476 1.97 0.068 0.5-0.059 1.298-0.181 2.068 -0.153 0.955-0.31 1.944-0.147 2.584 0.244 0.953 0.411 2.97 1.291 4.048 0.781 0.956 1.583 1.942 1.857 2.746C46.871 106.391 46.5 106.775 45.772 106.464z" fill="#d19292" stroke-width="none" opacity="1"></path></g><g id="svga-group-ears-right" ><path id="SvgjsPath9724" d="M154.066 84.344c1.486-2.462 6.328-9.199 10.031-8.254 3.012 0.772 2.973 4.971 3.207 7.455 0.34 3.644 0.463 9.992-0.525 12.568 -0.951 2.473-3.961 7.252-5.828 9.075 -2.299 2.235-5.971 9.358-6.422 10.097 -0.711 1.168-2.137 2.84-4.326 2.708 -3.07-0.185-5.723-3.087-5.965-4.485C142.938 105.918 150.203 90.75 154.066 84.344z" fill="#ffffff" stroke="#d19292" stroke-width="1.5" opacity="1"></path><path id="SvgjsPath9725" d="M154.322 103.243c-0.869 1.063-1.688 2.068-1.957 2.957 -0.092 0.304-0.094 0.935-0.078 1.444 0.014 0.413 0.121 0.596 0.225 0.587 0.102-0.008 0.16-0.199 0.148-0.617 -0.01-0.322-0.012-0.67 0.008-0.941 0.189 0.154 0.445 0.284 0.783 0.284 0.195 0 0.416-0.042 0.66-0.146 1.195-0.511 0.865-2.116 1.229-2.739 0.314-0.534 0.584-0.997 1.305-1.306 1.309-0.561 4.693-2.611 5.131-4.203 1.184-4.314-3.471-9.704-3.934-10.441 0.234-0.529 0.463-1.018 0.668-1.435 0.264-0.532 0.604-1.171 1.006-1.835 0.787 1.416 5.725 8.108 4.699 12.623 -0.969 4.254-7.441 10.003-8.939 11.635 -0.279 0.305-0.453 0.604-0.381 0.678 0.074 0.074 0.367-0.106 0.646-0.409 1.516-1.643 8.031-7.41 9.033-11.82 0.078-0.338 0.131-0.687 0.162-1.043 0.211-0.337 0.904-2.594 1.262-5.617 0.455-3.841-0.205-9.103-0.41-10.143 0.508-0.04-0.254-0.222 0 0 0.311 0.271 0.523 0.56 0.617 0.519 0.094-0.042 0.029-0.39-0.258-0.687 -0.391-0.403-1.066-0.801-2.09-0.468 -2.48 0.804-4.457 3.923-5.68 6.399 -1.061 2.152-2.686 6.122-2.975 8.212 -0.076 0.558 0.049 1.347 0.182 2.182 0.146 0.916 0.297 1.866 0.154 2.429C155.316 100.213 155.176 102.197 154.322 103.243zM159.738 84.488c0.66-1.042 2.209-2.835 3.221-3.235 0.527 0.95 4.158 7.256 1.811 14.179C164.672 90.775 160.219 85.321 159.738 84.488zM152.75 106.229c0.273-0.804 1.076-1.79 1.857-2.746 0.879-1.078 1.047-3.095 1.291-4.048 0.162-0.64 0.006-1.629-0.146-2.584 -0.123-0.77-0.25-1.568-0.182-2.068 0.076-0.547 0.246-1.228 0.475-1.97 0.746 0.543 3.721 3.199 1.039 9.273 -0.203 0.136-0.402 0.254-0.584 0.332 -0.832 0.358-1.16 0.918-1.479 1.46 -0.35 0.6 0.029 2.123-1.055 2.584C153.238 106.775 152.867 106.391 152.75 106.229z" fill="#d19292" stroke-width="none" opacity="1"></path></g><g id="svga-group-faceshape-wrap" ><g id="svga-group-faceshape-single" ><path id="SvgjsPath9747" d="M100.002 0.867C66.384 0.92 39.082 28.536 39.134 62.56c0.009 5.403 0.704 10.642 2.002 15.634h0.001c0.012 0.054 10.289 31.434 12.948 44.055 2.38 11.298 12.959 20.462 17.72 25.456 5.47 5.742 12.307 14.237 28.197 14.162 15.889 0.075 22.727-8.42 28.197-14.162 4.761-4.994 15.34-14.158 17.72-25.456 2.659-12.621 12.937-44 12.947-44.055h0.002c1.298-4.992 1.994-10.231 2.002-15.634C160.923 28.536 133.62 0.92 100.002 0.867z" fill="#ffffff" stroke-width="none" opacity="1"></path><path id="SvgjsPath9748" d="M133.47 11.063c14.604 11.197 24.131 29.487 24.1 50.155 -0.008 5.403-0.664 10.643-1.892 15.634h-0.002c-0.011 0.054-9.73 31.432-12.246 44.052 -2.251 11.3-12.256 20.462-16.76 25.458 -5.173 5.742-11.64 14.237-26.667 14.162 -15.028 0.075-21.495-8.42-26.668-14.162 -4.502-4.996-14.508-14.158-16.759-25.458 -2.516-12.62-12.235-43.998-12.247-44.052h-0.001c-1.228-4.992-1.885-10.231-1.893-15.634 -0.03-20.668 9.497-38.958 24.101-50.154 -16.522 11.041-27.433 29.982-27.4 51.496 0.009 5.403 0.704 10.642 2.002 15.634h0.001c0.012 0.054 10.289 31.434 12.948 44.055 2.38 11.298 12.959 20.462 17.72 25.456 5.47 5.742 12.307 14.237 28.197 14.162 15.889 0.075 22.727-8.42 28.197-14.162 4.761-4.994 15.34-14.158 17.72-25.456 2.659-12.621 12.937-44 12.947-44.055h0.002c1.298-4.992 1.994-10.231 2.002-15.634C160.903 41.046 149.992 22.104 133.47 11.063z" fill="#f7ebeb" stroke-width="none" opacity="1"></path><path id="SvgjsPath9749" d="M100.002 0.867C66.384 0.92 39.082 28.536 39.134 62.56c0.009 5.403 0.704 10.642 2.002 15.634h0.001c0.012 0.054 10.289 31.434 12.948 44.055 2.38 11.298 12.959 20.462 17.72 25.456 5.47 5.742 12.307 14.237 28.197 14.162 15.889 0.075 22.727-8.42 28.197-14.162 4.761-4.994 15.34-14.158 17.72-25.456 2.659-12.621 12.937-44 12.947-44.055h0.002c1.298-4.992 1.994-10.231 2.002-15.634C160.923 28.536 133.62 0.92 100.002 0.867z" fill="none" stroke="#d19292" stroke-width="1.5" opacity="1"></path></g></g><g id="svga-group-mouth-single" ><path id="SvgjsPath9711" d="M99.825 142.068c-3.24 0-4.753-2.802-4.753-2.802s4.797 0.781 9.279-0.064C104.352 139.202 102.675 142.068 99.825 142.068z" fill="url(#SvgjsLinearGradient9712)" opacity="1"></path><path id="SvgjsPath9715" d="M95.211 139.349c-0.132-0.039-0.23-0.149-0.208-0.285 0.021-0.137 0.151-0.224 0.286-0.209 3.612 0.857 5.963 0.661 8.766-0.043 0.145-0.035 0.27 0.062 0.297 0.195s-0.063 0.256-0.193 0.296C101.098 140.207 98.142 140.241 95.211 139.349zM85.447 133.958c0.313-0.144 0.582-0.086 1.073-0.115 1.419-0.249 3.128-0.323 4.54-0.611 1.348-0.274 2.774-0.662 4.158-0.597 1.488 0.071 2.879 0.669 4.353 0.829 1.401 0.151 2.708-0.229 4.053-0.557 1.542-0.376 3.01-0.287 4.56 0.006 1.938 0.363 3.774 0.857 5.689 1.038 0.582 0.055 0.365 0.413 0.032 0.454 -1.713 0.205-3.431-0.068-5.194-0.249 -1.425-0.146-2.868-0.329-4.274 0.021 -1.518 0.379-3.437 0.822-4.605 0.808 -1.3-0.017-2.521-0.538-3.784-0.807 -1.551-0.327-3.091-0.02-4.647 0.143 -1.938 0.201-3.672 0.34-5.579 0.047C85.312 134.29 85.306 134.023 85.447 133.958z" fill="#d19292" stroke-width="none" opacity="1" stroke="none"></path></g><g id="svga-group-eyes-left" ><g id="svga-group-eyesback-left"><path id="SvgjsPath9630" d="M61.752 82.523c-0.506-2.285 5.191-3.973 12.711-3.051 7.518 0.923 12.738 5.524 12.052 7.844 -0.38 1.286-10.639 3.245-14.253 2.847C68.598 89.758 62.974 88.04 61.752 82.523z" fill="url(#SvgjsRadialGradient9631)" opacity="1"></path></g><g id="svga-group-eyesiriswrapper-left" transform="translate(0.25 0.25)"><g id="svga-group-eyesiriscontrol-left" ><g id="svga-group-eyesiris-left" ><path id="SvgjsPath9920" d="M80 84c0 3.313-2.687 6-6 6 -3.313 0-6-2.687-6-6l0 0c0-3.314 2.687-6 6-6C77.313 77.999 80 80.686 80 84L80 84z" fill="#000000" stroke-width="none" opacity="1" stroke="none"></path><path id="SvgjsPath9921" d="M73.328 78.066c-0.023 0.003-0.047 0.006-0.071 0.009 0.029 0.135 0.057 0.271 0.085 0.406C73.336 78.344 73.333 78.204 73.328 78.066zM73.341 78.48c0.07 1.972 0.185 3.729 0.517 4.364C74.033 82.148 73.735 80.414 73.341 78.48zM73.859 82.845c-0.043 0.167-0.108 0.281-0.208 0.319 -0.1 0.038-0.226-0.006-0.368-0.103 0.041 0.167 0.037 0.297-0.036 0.378 -0.072 0.081-0.201 0.101-0.373 0.078 0.113 0.13 0.171 0.249 0.146 0.353 -0.027 0.104-0.134 0.182-0.293 0.242 0.159 0.063 0.266 0.141 0.291 0.245 0.025 0.104-0.033 0.223-0.145 0.352 0.17-0.021 0.301 0.001 0.371 0.082 0.071 0.081 0.075 0.212 0.035 0.379 0.141-0.097 0.265-0.139 0.365-0.1 0.101 0.038 0.166 0.152 0.206 0.32 0.081-0.152 0.171-0.249 0.28-0.26 0.104-0.014 0.216 0.059 0.329 0.188 0.001-0.172 0.037-0.299 0.127-0.36 0.088-0.061 0.219-0.049 0.379 0.013 -0.078-0.152-0.105-0.281-0.055-0.377 0.05-0.095 0.173-0.146 0.344-0.166 -0.141-0.099-0.227-0.2-0.225-0.308 0-0.108 0.084-0.209 0.227-0.306 -0.17-0.021-0.291-0.072-0.342-0.167 -0.049-0.095-0.022-0.225 0.058-0.377 -0.162 0.06-0.292 0.072-0.38 0.011 -0.089-0.061-0.125-0.188-0.125-0.36 -0.112 0.128-0.224 0.199-0.33 0.185C74.029 83.092 73.938 82.998 73.859 82.845zM74.466 82.92c0.479-0.535 1.021-2.209 1.57-4.104C75.182 80.593 74.467 82.202 74.466 82.92zM76.035 78.816c0.06-0.122 0.121-0.246 0.178-0.37 -0.021-0.007-0.042-0.017-0.063-0.026C76.112 78.553 76.074 78.686 76.035 78.816zM74.972 83.27c0.672-0.252 1.931-1.483 3.297-2.905C76.688 81.541 75.306 82.634 74.972 83.27zM78.269 80.365c0.1-0.075 0.203-0.15 0.305-0.225 -0.014-0.018-0.03-0.033-0.042-0.049C78.445 80.181 78.358 80.274 78.269 80.365zM75.254 83.814c0.713 0.088 2.4-0.417 4.272-1.041C77.578 83.081 75.848 83.406 75.254 83.814zM79.526 82.774c0.11-0.016 0.225-0.034 0.337-0.052 -0.004-0.019-0.009-0.038-0.014-0.057C79.742 82.701 79.632 82.738 79.526 82.774zM75.253 84.427c0.59 0.412 2.318 0.747 4.262 1.063C77.65 84.857 75.967 84.342 75.253 84.427zM79.516 85.49c0.095 0.033 0.191 0.067 0.285 0.098 0.005-0.017 0.009-0.033 0.012-0.05C79.716 85.523 79.615 85.507 79.516 85.49zM74.965 84.97c0.333 0.637 1.708 1.738 3.282 2.924C76.888 86.464 75.638 85.226 74.965 84.97zM78.248 87.892c0.059 0.062 0.12 0.126 0.179 0.189 0.01-0.012 0.019-0.021 0.03-0.032C78.387 87.997 78.315 87.944 78.248 87.892zM74.46 85.317c-0.003 0.719 0.703 2.331 1.547 4.113C75.468 87.533 74.937 85.855 74.46 85.317zM76.007 89.431c0.021 0.075 0.043 0.152 0.063 0.229 0.015-0.006 0.025-0.01 0.039-0.014C76.076 89.574 76.041 89.5 76.007 89.431zM73.851 85.389c-0.336 0.637-0.461 2.39-0.542 4.361C73.713 87.82 74.022 86.087 73.851 85.389zM73.309 89.75c-0.017 0.075-0.031 0.151-0.047 0.228 0.014 0.003 0.025 0.003 0.039 0.005C73.303 89.906 73.307 89.826 73.309 89.75zM73.28 85.169c-0.596 0.407-1.521 1.904-2.508 3.61C72.026 87.259 73.106 85.867 73.28 85.169zM70.772 88.779c-0.053 0.063-0.108 0.13-0.162 0.193 0.013 0.008 0.024 0.014 0.038 0.024C70.688 88.924 70.731 88.851 70.772 88.779zM72.875 84.71c-0.716 0.083-2.231 0.978-3.898 2.029C70.795 85.977 72.395 85.248 72.875 84.71zM68.976 86.741c-0.086 0.036-0.174 0.072-0.263 0.11 0.006 0.013 0.015 0.027 0.023 0.04C68.817 86.842 68.897 86.791 68.976 86.741zM72.728 84.113c-0.671-0.257-2.429-0.168-4.395-0.011C70.297 84.27 72.055 84.367 72.728 84.113zM68.333 84.102c-0.107-0.01-0.217-0.02-0.323-0.029 0 0.019-0.002 0.038 0 0.056C68.119 84.119 68.228 84.11 68.333 84.102zM72.875 83.519c-0.473-0.539-2.069-1.277-3.881-2.051C70.653 82.528 72.163 83.432 72.875 83.519zM68.994 81.468c-0.104-0.067-0.209-0.134-0.315-0.201 -0.009 0.019-0.019 0.038-0.029 0.055C68.766 81.371 68.882 81.419 68.994 81.468zM73.284 83.061c-0.169-0.698-1.241-2.094-2.485-3.623C71.775 81.15 72.692 82.651 73.284 83.061zM70.799 79.438c-0.067-0.115-0.132-0.232-0.199-0.349 -0.019 0.013-0.039 0.026-0.056 0.039C70.628 79.231 70.716 79.335 70.799 79.438z" fill="url(#SvgjsRadialGradient9922)" opacity="0.7"></path><path id="SvgjsPath9925" d="M74.886 78.086c-0.024-0.003-0.047-0.007-0.07-0.01 -0.007 0.138-0.016 0.277-0.024 0.414C74.822 78.356 74.855 78.22 74.886 78.086zM74.791 78.489c-0.442 1.922-0.787 3.649-0.629 4.35C74.511 82.211 74.671 80.459 74.791 78.489zM74.161 82.839c-0.084 0.15-0.176 0.243-0.283 0.254 -0.106 0.01-0.216-0.064-0.327-0.195 -0.004 0.171-0.042 0.297-0.133 0.356 -0.09 0.059-0.221 0.045-0.38-0.021 0.076 0.155 0.101 0.285 0.049 0.378 -0.053 0.094-0.176 0.142-0.345 0.158 0.137 0.101 0.22 0.204 0.217 0.312 -0.002 0.107-0.089 0.207-0.231 0.302 0.169 0.024 0.29 0.079 0.337 0.174 0.048 0.096 0.018 0.225-0.064 0.375 0.161-0.057 0.292-0.065 0.379-0.002 0.087 0.063 0.12 0.19 0.116 0.363 0.117-0.125 0.229-0.196 0.337-0.179 0.105 0.014 0.194 0.113 0.27 0.268 0.045-0.167 0.113-0.279 0.216-0.315 0.101-0.036 0.225 0.01 0.363 0.111 -0.036-0.167-0.029-0.299 0.044-0.378 0.073-0.079 0.205-0.096 0.376-0.072 -0.111-0.132-0.168-0.251-0.138-0.355 0.028-0.104 0.136-0.18 0.299-0.237 -0.16-0.064-0.263-0.145-0.288-0.25 -0.023-0.105 0.037-0.223 0.154-0.349 -0.172 0.016-0.301-0.006-0.37-0.088 -0.07-0.082-0.072-0.214-0.028-0.379 -0.142 0.094-0.268 0.134-0.367 0.093C74.261 83.122 74.199 83.007 74.161 82.839zM74.729 83.07c0.601-0.394 1.557-1.871 2.578-3.558C76.022 81.007 74.916 82.375 74.729 83.07zM77.307 79.511c0.089-0.102 0.18-0.206 0.268-0.311 -0.019-0.013-0.036-0.028-0.055-0.042C77.449 79.277 77.378 79.396 77.307 79.511zM75.127 83.538c0.715-0.07 2.25-0.934 3.937-1.953C77.231 82.312 75.614 83.01 75.127 83.538zM79.063 81.584c0.117-0.046 0.235-0.092 0.354-0.138 -0.01-0.021-0.021-0.04-0.028-0.059C79.281 81.453 79.173 81.52 79.063 81.584zM75.259 84.137c0.666 0.27 2.426 0.218 4.395 0.101C77.693 84.03 75.938 83.896 75.259 84.137zM79.654 84.237c0.112 0.013 0.226 0.025 0.339 0.037 0-0.02 0.001-0.039 0.002-0.058C79.881 84.223 79.766 84.23 79.654 84.237zM75.1 84.729c0.462 0.551 2.046 1.321 3.842 2.129C77.303 85.763 75.811 84.831 75.1 84.729zM78.941 86.858c0.083 0.057 0.167 0.114 0.25 0.168 0.009-0.015 0.017-0.03 0.025-0.045C79.126 86.942 79.032 86.9 78.941 86.858zM74.68 85.179c0.156 0.701 1.2 2.12 2.414 3.674C76.151 87.119 75.264 85.599 74.68 85.179zM77.094 88.85c0.042 0.075 0.083 0.153 0.125 0.229 0.012-0.009 0.024-0.016 0.037-0.024C77.202 88.987 77.147 88.917 77.094 88.85zM74.103 85.383c-0.188 0.693 0.076 2.433 0.43 4.373C74.502 87.784 74.424 86.026 74.103 85.383zM74.532 89.756c0.001 0.078 0.003 0.158 0.003 0.238 0.014-0.002 0.027-0.004 0.041-0.004C74.562 89.913 74.547 89.833 74.532 89.756zM73.496 85.294c-0.49 0.528-1.064 2.189-1.652 4.072C72.733 87.607 73.481 86.013 73.496 85.294zM71.843 89.366c-0.035 0.068-0.07 0.138-0.104 0.208 0.012 0.006 0.023 0.009 0.036 0.015C71.797 89.516 71.821 89.439 71.843 89.366zM73 84.934c-0.68 0.239-1.962 1.446-3.357 2.838C71.25 86.628 72.652 85.563 73 84.934zM69.644 87.772c-0.067 0.047-0.137 0.098-0.205 0.145 0.01 0.011 0.02 0.02 0.029 0.032C69.525 87.89 69.585 87.832 69.644 87.772zM72.728 84.385c-0.713-0.104-2.407 0.368-4.291 0.952C70.392 85.071 72.125 84.781 72.728 84.385zM68.437 85.339c-0.092 0.013-0.187 0.024-0.283 0.039 0.003 0.015 0.008 0.03 0.013 0.044C68.258 85.396 68.348 85.366 68.437 85.339zM72.741 83.772c-0.582-0.423-2.303-0.792-4.242-1.149C70.353 83.294 72.025 83.843 72.741 83.772zM68.499 82.623c-0.101-0.037-0.205-0.075-0.305-0.112 -0.005 0.019-0.011 0.037-0.015 0.054C68.288 82.584 68.395 82.604 68.499 82.623zM73.038 83.235c-0.318-0.643-1.668-1.769-3.219-2.986C71.147 81.704 72.372 82.968 73.038 83.235zM69.818 80.25c-0.083-0.091-0.167-0.183-0.251-0.275 -0.014 0.016-0.029 0.031-0.042 0.046C69.624 80.097 69.723 80.173 69.818 80.25zM73.551 82.899c0.017-0.718-0.656-2.344-1.464-4.142C72.587 80.663 73.085 82.35 73.551 82.899zM72.087 78.757c-0.034-0.128-0.067-0.259-0.101-0.389 -0.021 0.007-0.043 0.015-0.063 0.023C71.977 78.513 72.033 78.636 72.087 78.757z" fill="url(#SvgjsRadialGradient9926)" opacity="0.4"></path><path id="SvgjsPath9929" d="M76.354 84c0 1.3-1.053 2.353-2.353 2.353 -1.299 0-2.354-1.053-2.354-2.353 0-1.299 1.055-2.354 2.354-2.354C75.301 81.646 76.354 82.7 76.354 84z" fill="#000000" stroke-width="none" opacity="1" stroke="none"></path><path id="SvgjsPath9930" d="M76.354 84c0 1.3-1.053 2.353-2.353 2.353 -1.299 0-2.354-1.053-2.354-2.353 0-1.299 1.055-2.354 2.354-2.354C75.301 81.646 76.354 82.7 76.354 84z" fill="#000000" stroke-width="none" opacity="0.9"></path><path id="SvgjsPath9931" d="M70.717 86.748c0.449-0.302 1.059-0.18 1.36 0.268 0.301 0.449 0.182 1.059-0.268 1.36 -0.45 0.303-1.059 0.183-1.36-0.267C70.148 87.66 70.268 87.049 70.717 86.748L70.717 86.748z" fill="url(#SvgjsLinearGradient9932)" opacity="0.5"></path><path id="SvgjsPath9935" d="M75.86 83.672c-0.251 0.374-0.969 0.331-1.606-0.096 -0.638-0.427-0.95-1.078-0.7-1.451l0-0.001c0.25-0.374 0.969-0.331 1.605 0.097C75.798 82.647 76.11 83.297 75.86 83.672 75.86 83.672 75.86 83.672 75.86 83.672z" fill="url(#SvgjsLinearGradient9936)" opacity="0.5"></path><path id="SvgjsPath9939" d="M78.716 82.673c-0.568 0.873-2.036 0.925-3.275 0.117 -1.24-0.808-1.784-2.17-1.215-3.043 0.568-0.872 2.036-0.924 3.275-0.117C78.74 80.439 79.284 81.802 78.716 82.673L78.716 82.673z" fill="url(#SvgjsLinearGradient9940)" opacity="0.75"></path></g></g></g><g id="svga-group-eyesfront-left"><path id="SvgjsPath9652" d="M53.294 83c0.809 10.899 11.637 23.583 20.506 22.236 10.498 0.106 20.864-7.868 20.864-22.305s-5.087-26.528-21.127-26.528C62.037 56.402 53.294 68.563 53.294 83zM61.752 82.523c-0.506-2.285 5.191-3.973 12.711-3.051 7.518 0.923 12.738 5.524 12.052 7.844 -0.38 1.286-10.639 3.245-14.253 2.847C68.598 89.758 62.974 88.04 61.752 82.523z" fill="#ffffff" stroke-width="none" opacity="1"></path><path id="SvgjsPath9653" d="M72.262 90.163c3.614 0.398 13.873-1.561 14.253-2.847 0.687-2.32-4.534-6.921-12.052-7.844C68.003 78.68 62.9 79.816 61.907 81.6c0.898-6.4 7.7-11.397 15.987-11.434 8.911-0.037 16.148 5.676 16.172 12.765 0.021 7.088-7.185 12.862-16.095 12.902 -8.913 0.037-16.149-5.676-16.173-12.764 0-0.105 0.016-0.208 0.019-0.313C63.147 88.083 68.651 89.764 72.262 90.163z" fill="url(#SvgjsRadialGradient9654)" opacity="1"></path><path id="SvgjsPath9658" d="M61.752 82.523c-0.506-2.285 5.191-3.973 12.711-3.051 7.518 0.923 12.738 5.524 12.052 7.844 -0.38 1.286-10.639 3.245-14.253 2.847C68.598 89.758 62.974 88.04 61.752 82.523z" fill="url(#SvgjsRadialGradient9659)" opacity="1"></path><path id="SvgjsPath9662" d="M62.148 77.417c4.208-1.978 9.35-2.16 13.838-1.005 2.404 0.561 4.965 1.285 7.063 2.638 1.945 1.135 3.525 2.5 5.002 4.19 -1.342-1.701-2.773-3.118-4.623-4.27 -2.276-1.416-4.769-2.294-7.364-2.916C71.478 74.928 66.342 75.184 62.148 77.417z" fill="#d19292" stroke-width="none" opacity="1"></path><path id="SvgjsPath9663" d="M62.769 78.02c0.88-0.352 4.065-1 5.456-1.066 1.687-0.082 5.073 0.125 6.735 0.424 3.374 0.608 9.251 2.483 11.678 7.184 0.746 1.445 0.074 2.456-0.123 2.675 0.3-2.426-4.838-6.746-12.052-7.604 -7.52-0.894-13.217 0.743-12.711 2.958 1.222 5.348 6.846 7.013 10.51 7.405 4.099 0.439 11.684-1.539 12.686-1.753 -1.999 1.009-7.524 2.095-9.767 2.303 -0.744 0.07-2.24 0.104-2.986 0.085 -5.949-0.158-10.169-3.175-11.729-7.26C59.464 80.745 60.56 78.902 62.769 78.02z" fill="#2c1630" stroke-width="none" opacity="1"></path></g></g><g id="svga-group-eyes-right" ><g id="svga-group-eyesback-right"><path id="SvgjsPath9637" d="M137.849 82.523c0.506-2.285-5.191-3.973-12.711-3.051 -7.518 0.923-12.738 5.524-12.052 7.844 0.38 1.286 10.639 3.245 14.253 2.847C131.003 89.758 136.627 88.04 137.849 82.523z" fill="url(#SvgjsRadialGradient9638)" opacity="1"></path></g><g id="svga-group-eyesiriswrapper-right" transform="translate(-0.25 0.25)"><g id="svga-group-eyesiriscontrol-right" ><g id="svga-group-eyesiris-right" ><path id="SvgjsPath9943" d="M132 84c0 3.313-2.687 6-5.999 6 -3.313 0-6.001-2.687-6.001-6l0 0c0-3.314 2.688-6 6.001-6C129.313 77.999 132 80.686 132 84L132 84z" fill="#000000" stroke-width="none" opacity="1" stroke="none"></path><path id="SvgjsPath9944" d="M125.328 78.066c-0.023 0.003-0.047 0.006-0.071 0.009 0.029 0.135 0.058 0.271 0.085 0.406C125.336 78.344 125.333 78.204 125.328 78.066zM125.341 78.48c0.069 1.972 0.185 3.729 0.518 4.364C126.033 82.148 125.735 80.414 125.341 78.48zM125.858 82.845c-0.042 0.167-0.108 0.281-0.207 0.319 -0.101 0.038-0.226-0.006-0.367-0.103 0.04 0.167 0.036 0.297-0.036 0.378 -0.072 0.081-0.201 0.101-0.372 0.078 0.112 0.13 0.171 0.249 0.146 0.353 -0.028 0.104-0.134 0.182-0.293 0.242 0.158 0.063 0.265 0.141 0.29 0.245 0.025 0.104-0.032 0.223-0.145 0.352 0.17-0.021 0.3 0.001 0.37 0.082 0.071 0.081 0.075 0.212 0.035 0.379 0.141-0.097 0.266-0.139 0.365-0.1 0.102 0.038 0.166 0.152 0.206 0.32 0.08-0.152 0.172-0.249 0.279-0.26 0.105-0.014 0.217 0.059 0.329 0.188 0.002-0.172 0.037-0.299 0.128-0.36 0.087-0.061 0.219-0.049 0.379 0.013 -0.078-0.152-0.104-0.281-0.056-0.377 0.051-0.095 0.174-0.146 0.345-0.166 -0.141-0.099-0.228-0.2-0.225-0.308 -0.001-0.108 0.084-0.209 0.227-0.306 -0.171-0.021-0.291-0.072-0.342-0.167 -0.05-0.095-0.022-0.225 0.057-0.377 -0.161 0.06-0.291 0.072-0.38 0.011s-0.124-0.188-0.125-0.36c-0.111 0.128-0.224 0.199-0.33 0.185C126.029 83.092 125.938 82.998 125.858 82.845zM126.466 82.92c0.479-0.535 1.021-2.209 1.569-4.104C127.182 80.593 126.468 82.202 126.466 82.92zM128.035 78.816c0.06-0.122 0.121-0.246 0.179-0.37 -0.021-0.007-0.042-0.017-0.063-0.026C128.112 78.553 128.074 78.686 128.035 78.816zM126.972 83.27c0.673-0.252 1.932-1.483 3.298-2.905C128.688 81.541 127.307 82.634 126.972 83.27zM130.27 80.365c0.1-0.075 0.202-0.15 0.305-0.225 -0.015-0.018-0.03-0.033-0.042-0.049C130.445 80.181 130.358 80.274 130.27 80.365zM127.255 83.814c0.713 0.088 2.399-0.417 4.271-1.041C129.578 83.081 127.848 83.406 127.255 83.814zM131.526 82.774c0.11-0.016 0.225-0.034 0.337-0.052 -0.005-0.019-0.009-0.038-0.014-0.057C131.742 82.701 131.632 82.738 131.526 82.774zM127.253 84.427c0.591 0.412 2.318 0.747 4.263 1.063C129.65 84.857 127.967 84.342 127.253 84.427zM131.516 85.49c0.095 0.033 0.19 0.067 0.285 0.098 0.005-0.017 0.009-0.033 0.013-0.05C131.716 85.523 131.614 85.507 131.516 85.49zM126.965 84.97c0.332 0.637 1.708 1.738 3.282 2.924C128.889 86.464 127.638 85.226 126.965 84.97zM130.248 87.892c0.059 0.062 0.119 0.126 0.178 0.189 0.01-0.012 0.02-0.021 0.031-0.032C130.387 87.997 130.315 87.944 130.248 87.892zM126.461 85.317c-0.003 0.719 0.702 2.331 1.547 4.113C127.468 87.533 126.937 85.855 126.461 85.317zM128.008 89.431c0.021 0.075 0.043 0.152 0.063 0.229 0.015-0.006 0.026-0.01 0.039-0.014C128.076 89.574 128.041 89.5 128.008 89.431zM125.851 85.389c-0.336 0.637-0.461 2.39-0.542 4.361C125.713 87.82 126.022 86.087 125.851 85.389zM125.309 89.75c-0.017 0.075-0.031 0.151-0.047 0.228 0.014 0.003 0.024 0.003 0.039 0.005C125.303 89.906 125.307 89.826 125.309 89.75zM125.279 85.169c-0.596 0.407-1.521 1.904-2.508 3.61C124.026 87.259 125.105 85.867 125.279 85.169zM122.771 88.779c-0.052 0.063-0.107 0.13-0.161 0.193 0.013 0.008 0.024 0.014 0.037 0.024C122.688 88.924 122.731 88.851 122.771 88.779zM124.874 84.71c-0.716 0.083-2.23 0.978-3.897 2.029C122.795 85.977 124.395 85.248 124.874 84.71zM120.977 86.741c-0.087 0.036-0.175 0.072-0.263 0.11 0.006 0.013 0.014 0.027 0.023 0.04C120.817 86.842 120.897 86.791 120.977 86.741zM124.729 84.113c-0.672-0.257-2.43-0.168-4.396-0.011C122.298 84.27 124.055 84.367 124.729 84.113zM120.333 84.102c-0.106-0.01-0.217-0.02-0.322-0.029 -0.001 0.019-0.003 0.038-0.001 0.056C120.119 84.119 120.228 84.11 120.333 84.102zM124.876 83.519c-0.474-0.539-2.069-1.277-3.882-2.051C122.653 82.528 124.163 83.432 124.876 83.519zM120.994 81.468c-0.104-0.067-0.21-0.134-0.315-0.201 -0.009 0.019-0.019 0.038-0.028 0.055C120.766 81.371 120.883 81.419 120.994 81.468zM125.284 83.061c-0.169-0.698-1.241-2.094-2.485-3.623C123.775 81.15 124.692 82.651 125.284 83.061zM122.799 79.438c-0.067-0.115-0.133-0.232-0.198-0.349 -0.019 0.013-0.039 0.026-0.057 0.039C122.629 79.231 122.716 79.335 122.799 79.438z" fill="url(#SvgjsRadialGradient9945)" opacity="0.7"></path><path id="SvgjsPath9948" d="M126.886 78.086c-0.024-0.003-0.047-0.007-0.07-0.01 -0.008 0.138-0.016 0.277-0.024 0.414C126.821 78.356 126.854 78.22 126.886 78.086zM126.791 78.489c-0.443 1.922-0.787 3.649-0.63 4.35C126.511 82.211 126.671 80.459 126.791 78.489zM126.161 82.839c-0.084 0.15-0.177 0.243-0.283 0.254 -0.106 0.01-0.216-0.064-0.327-0.195 -0.004 0.171-0.042 0.297-0.133 0.356 -0.09 0.059-0.221 0.045-0.38-0.021 0.075 0.155 0.101 0.285 0.049 0.378 -0.054 0.094-0.176 0.142-0.346 0.158 0.138 0.101 0.22 0.204 0.217 0.312 -0.002 0.107-0.089 0.207-0.23 0.302 0.17 0.024 0.289 0.079 0.337 0.174 0.048 0.096 0.018 0.225-0.064 0.375 0.162-0.057 0.293-0.065 0.38-0.002 0.087 0.063 0.12 0.19 0.115 0.363 0.117-0.125 0.229-0.196 0.337-0.179 0.105 0.014 0.194 0.113 0.27 0.268 0.046-0.167 0.113-0.279 0.216-0.315 0.101-0.036 0.226 0.01 0.363 0.111 -0.035-0.167-0.028-0.299 0.045-0.378 0.072-0.079 0.204-0.096 0.375-0.072 -0.11-0.132-0.168-0.251-0.138-0.355 0.027-0.104 0.136-0.18 0.299-0.237 -0.159-0.064-0.263-0.145-0.288-0.25 -0.022-0.105 0.038-0.223 0.154-0.349 -0.172 0.016-0.302-0.006-0.37-0.088 -0.07-0.082-0.072-0.214-0.027-0.379 -0.143 0.094-0.269 0.134-0.368 0.093C126.262 83.122 126.198 83.007 126.161 82.839zM126.729 83.07c0.601-0.394 1.557-1.871 2.578-3.558C128.022 81.007 126.916 82.375 126.729 83.07zM129.307 79.511c0.089-0.102 0.18-0.206 0.269-0.311 -0.02-0.013-0.037-0.028-0.056-0.042C129.449 79.277 129.378 79.396 129.307 79.511zM127.127 83.538c0.715-0.07 2.249-0.934 3.937-1.953C129.231 82.312 127.614 83.01 127.127 83.538zM131.063 81.584c0.116-0.046 0.234-0.092 0.354-0.138 -0.01-0.021-0.021-0.04-0.028-0.059C131.281 81.453 131.173 81.52 131.063 81.584zM127.259 84.137c0.666 0.27 2.426 0.218 4.396 0.101C129.692 84.03 127.938 83.896 127.259 84.137zM131.654 84.237c0.111 0.013 0.226 0.025 0.339 0.037 0.001-0.02 0.001-0.039 0.002-0.058C131.882 84.223 131.766 84.23 131.654 84.237zM127.1 84.729c0.463 0.551 2.046 1.321 3.842 2.129C129.303 85.763 127.811 84.831 127.1 84.729zM130.941 86.858c0.082 0.057 0.167 0.114 0.25 0.168 0.009-0.015 0.018-0.03 0.024-0.045C131.126 86.942 131.032 86.9 130.941 86.858zM126.681 85.179c0.155 0.701 1.199 2.12 2.413 3.674C128.151 87.119 127.265 85.599 126.681 85.179zM129.095 88.85c0.041 0.075 0.082 0.153 0.124 0.229 0.012-0.009 0.023-0.016 0.037-0.024C129.202 88.987 129.146 88.917 129.095 88.85zM126.103 85.383c-0.188 0.693 0.076 2.433 0.43 4.373C126.502 87.784 126.424 86.026 126.103 85.383zM126.532 89.756c0.001 0.078 0.003 0.158 0.003 0.238 0.015-0.002 0.026-0.004 0.04-0.004C126.562 89.913 126.547 89.833 126.532 89.756zM125.495 85.294c-0.489 0.528-1.064 2.189-1.652 4.072C124.733 87.607 125.48 86.013 125.495 85.294zM123.843 89.366c-0.035 0.068-0.069 0.138-0.104 0.208 0.012 0.006 0.022 0.009 0.035 0.015C123.797 89.516 123.821 89.439 123.843 89.366zM125 84.934c-0.68 0.239-1.961 1.446-3.356 2.838C123.25 86.628 124.652 85.563 125 84.934zM121.644 87.772c-0.067 0.047-0.138 0.098-0.205 0.145 0.01 0.011 0.02 0.02 0.029 0.032C121.525 87.89 121.586 87.832 121.644 87.772zM124.728 84.385c-0.713-0.104-2.406 0.368-4.29 0.952C122.392 85.071 124.126 84.781 124.728 84.385zM120.438 85.339c-0.093 0.013-0.188 0.024-0.283 0.039 0.004 0.015 0.008 0.03 0.013 0.044C120.258 85.396 120.348 85.366 120.438 85.339zM124.741 83.772c-0.582-0.423-2.303-0.792-4.242-1.149C122.353 83.294 124.025 83.843 124.741 83.772zM120.499 82.623c-0.101-0.037-0.205-0.075-0.305-0.112 -0.006 0.019-0.011 0.037-0.015 0.054C120.287 82.584 120.395 82.604 120.499 82.623zM125.038 83.235c-0.318-0.643-1.669-1.769-3.22-2.986C123.147 81.704 124.372 82.968 125.038 83.235zM121.818 80.25c-0.083-0.091-0.167-0.183-0.251-0.275 -0.015 0.016-0.028 0.031-0.043 0.046C121.623 80.097 121.724 80.173 121.818 80.25zM125.551 82.899c0.017-0.718-0.656-2.344-1.464-4.142C124.588 80.663 125.085 82.35 125.551 82.899zM124.087 78.757c-0.034-0.128-0.067-0.259-0.102-0.389 -0.021 0.007-0.043 0.015-0.063 0.023C123.977 78.513 124.033 78.636 124.087 78.757z" fill="url(#SvgjsRadialGradient9949)" opacity="0.4"></path><path id="SvgjsPath9952" d="M128.354 84c0 1.3-1.054 2.353-2.353 2.353 -1.3 0-2.354-1.053-2.354-2.353 0-1.299 1.055-2.354 2.354-2.354C127.302 81.646 128.354 82.7 128.354 84z" fill="#000000" stroke-width="none" opacity="1" stroke="none"></path><path id="SvgjsPath9953" d="M128.354 84c0 1.3-1.054 2.353-2.353 2.353 -1.3 0-2.354-1.053-2.354-2.353 0-1.299 1.055-2.354 2.354-2.354C127.302 81.646 128.354 82.7 128.354 84z" fill="#000000" stroke-width="none" opacity="0.9"></path><path id="SvgjsPath9954" d="M122.718 86.748c0.448-0.302 1.059-0.18 1.359 0.268 0.302 0.449 0.183 1.059-0.268 1.36 -0.45 0.303-1.059 0.183-1.359-0.267C122.148 87.66 122.268 87.049 122.718 86.748L122.718 86.748z" fill="url(#SvgjsLinearGradient9955)" opacity="0.5"></path><path id="SvgjsPath9958" d="M127.859 83.672c-0.251 0.374-0.969 0.331-1.605-0.096 -0.638-0.427-0.95-1.078-0.7-1.451l0.001-0.001c0.25-0.374 0.969-0.331 1.605 0.097C127.798 82.647 128.11 83.297 127.859 83.672 127.859 83.672 127.859 83.672 127.859 83.672z" fill="url(#SvgjsLinearGradient9959)" opacity="0.5"></path><path id="SvgjsPath9962" d="M130.717 82.673c-0.569 0.873-2.036 0.925-3.276 0.117 -1.239-0.808-1.784-2.17-1.215-3.043 0.568-0.872 2.035-0.924 3.275-0.117C130.74 80.439 131.284 81.802 130.717 82.673L130.717 82.673z" fill="url(#SvgjsLinearGradient9963)" opacity="0.75"></path></g></g></g><g id="svga-group-eyesfront-right"><path id="SvgjsPath9672" d="M126.063 56.402c-16.04 0-21.127 12.091-21.127 26.528s10.366 22.412 20.864 22.305c8.869 1.347 19.697-11.337 20.506-22.236C146.307 68.563 137.563 56.402 126.063 56.402zM127.339 90.163c-3.614 0.398-13.873-1.561-14.253-2.847 -0.687-2.32 4.534-6.921 12.052-7.844 7.52-0.922 13.217 0.767 12.711 3.051C136.627 88.04 131.003 89.758 127.339 90.163z" fill="#ffffff" stroke-width="none" opacity="1"></path><path id="SvgjsPath9673" d="M127.339 90.163c-3.614 0.398-13.873-1.561-14.253-2.847 -0.687-2.32 4.534-6.921 12.052-7.844 6.46-0.792 11.563 0.345 12.556 2.128 -0.898-6.4-7.7-11.397-15.987-11.434 -8.911-0.037-16.148 5.676-16.172 12.765 -0.021 7.088 7.185 12.862 16.095 12.902 8.913 0.037 16.149-5.676 16.173-12.764 0-0.105-0.016-0.208-0.019-0.313C136.453 88.083 130.949 89.764 127.339 90.163z" fill="url(#SvgjsRadialGradient9674)" opacity="1"></path><path id="SvgjsPath9678" d="M137.849 82.523c0.506-2.285-5.191-3.973-12.711-3.051 -7.518 0.923-12.738 5.524-12.052 7.844 0.38 1.286 10.639 3.245 14.253 2.847C131.003 89.758 136.627 88.04 137.849 82.523z" fill="url(#SvgjsRadialGradient9679)" opacity="1"></path><path id="SvgjsPath9682" d="M137.452 77.417c-4.208-1.978-9.35-2.16-13.838-1.005 -2.404 0.561-4.965 1.285-7.063 2.638 -1.945 1.135-3.525 2.5-5.002 4.19 1.342-1.701 2.773-3.118 4.623-4.27 2.276-1.416 4.769-2.294 7.364-2.916C128.123 74.928 133.259 75.184 137.452 77.417z" fill="#d19292" stroke-width="none" opacity="1"></path><path id="SvgjsPath9683" d="M136.832 78.02c-0.88-0.352-4.065-1-5.456-1.066 -1.687-0.082-5.073 0.125-6.735 0.424 -3.374 0.608-9.251 2.483-11.678 7.184 -0.746 1.445-0.074 2.456 0.123 2.675 -0.3-2.426 4.838-6.746 12.052-7.604 7.52-0.894 13.217 0.743 12.711 2.958 -1.222 5.348-6.846 7.013-10.51 7.405 -4.099 0.439-11.684-1.539-12.686-1.753 1.999 1.009 7.524 2.095 9.767 2.303 0.744 0.07 2.24 0.104 2.986 0.085 5.949-0.158 10.169-3.175 11.729-7.26C140.137 80.745 139.041 78.902 136.832 78.02z" fill="#2c1630" stroke-width="none" opacity="1"></path></g></g><g id="svga-group-facehighlight-single" ><path id="SvgjsPath8971" d="M141 113.974c0.035 22.622-18.292 40.994-40.938 41.025 -22.642 0.037-41.028-18.273-41.063-40.9 -0.035-22.62 18.292-41.064 40.937-41.1C122.579 72.964 140.967 91.349 141 113.974z" fill="url(#SvgjsRadialGradient8972)" opacity="1"></path><path id="SvgjsPath8975" d="M137.5 53.999c0 20.711-16.789 37.5-37.499 37.5 -20.711 0-37.501-16.789-37.501-37.5s16.79-37.5 37.501-37.5C120.711 16.499 137.5 33.288 137.5 53.999z" fill="url(#SvgjsRadialGradient8976)" opacity="1"></path></g><g id="svga-group-eyebrows-left" ><path id="SvgjsPath9784" d="M59.396 71.48c16.138-1.701 18.92 1.72 27.556 5.214 0.474 0.186 1.583 0.391 1.88-0.098 0.787-1.312-2.444-3.681-3.84-4.295C75.852 68.053 63.962 68.259 59.396 71.48z" fill="#000000" stroke-width="none" opacity="1" stroke="none"></path></g><g id="svga-group-eyebrows-right" ><path id="SvgjsPath9785" d="M140.604 71.48c-16.139-1.701-18.921 1.72-27.556 5.214 -0.474 0.186-1.583 0.391-1.88-0.098 -0.787-1.312 2.443-3.681 3.84-4.295C124.148 68.053 136.038 68.259 140.604 71.48z" fill="#000000" stroke-width="none" opacity="1" stroke="none"></path></g><g id="svga-group-nose-single" ><path id="SvgjsPath9719" d="M109.895 118.829c0.19-0.512 0.307-1.047 0.396-1.584 0.033-0.198-0.229-0.929-0.252-0.697 -0.101 0.941-0.612 2.262-1.6 2.551 -1.133 0.329-1.783-0.056-1.886-1.172 -0.104-1.125 0.297-2.619-0.109-3.665 -0.264-0.676-0.856-1.226-1.464-1.606 0.458 2.04 0.823 4.704-1.128 6.164 0.167 0.199 0.319 0.293 0.467 0.333 -0.153 0.026-0.308 0.059-0.467 0.13 -0.771 0.352-3.586 1.015-4.404 0.657 -0.193-0.085-0.622-0.152-1.16-0.204 -0.362-0.315-1.023-1.138-1.332-1.328 -1.215-0.751-1.851-2.069-1.926-3.472 -0.163-2.955 1.373-6.245 4.861-7.528 -3.578-1.004-4.064 4.863-6.408 6.172 -1.402 0.783-2.741 1.479-2.716 3.229 0.008 0.579 0.078 1.419 0.34 2.122 -0.421-0.591-0.699-1.125-0.739-0.653 -0.342 3.979 3.522 2.884 5.042 3.158 1.255 0.227 3.412 0.544 4.459 0.563 1.137 0.02 2.858-0.377 3.981-0.563 1.087-0.181 2.985 0.037 4.381-0.59 0.824-0.371 2.006-0.612 2.006-2.211l-0.402 0.326C109.855 118.916 109.878 118.874 109.895 118.829z" fill="#f0d8d8" stroke-width="none" opacity="1"></path><path id="SvgjsPath9720" d="M90.642 116.322c0.15-0.48 0.371-0.961 0.73-1.324 -0.631 1.095-0.719 2.661-0.152 3.799 0.697 1.399 1.94 1.104 3.131 0.563 1.191-0.54 1.188-0.938 2.426-0.526 0.963 0.319 1.737 0.795 2.797 0.793 1.132-0.002 1.977-0.471 3.03-0.798 1.278-0.38 2.357-0.162 3.559 0.378 1.13 0.509 2.426 1.15 3.301-0.117 0.773-1.148 0.69-2.922 0.017-4.092 1.51 1.542 1.145 5.938-1.745 5.384 -0.397-0.08-1.098-0.563-1.451-0.469 -0.64 0.175-1.445 0.007-2.091-0.054 -1.175-0.112-2.195-0.108-3.312 0.174 -0.429 0.1-0.869 0.158-1.309 0.154 -0.525-0.007-1.057-0.268-1.556-0.237 -1.4 0.086-1.984-0.214-3.39-0.124 -1.197 0.077-1.955 1.13-3.142 0.177C90.436 119.125 90.275 117.566 90.642 116.322 90.719 116.078 90.497 116.814 90.642 116.322zM101.211 107.662c0.557 0.115 1.063 0.367 1.531 0.684 -1.391-2.209-4.931-1.408-6.339 0.345C97.843 107.926 99.562 107.296 101.211 107.662 101.478 107.719 100.678 107.543 101.211 107.662z" fill="#d19292" stroke-width="none" opacity="1"></path><path id="SvgjsPath9721" d="M93.079 117.678c-0.216-1.586 0.406-3.049-0.995-1.972C91.214 116.375 93.418 120.168 93.079 117.678z" fill="#ffffff" stroke-width="none" opacity="1"></path></g><g id="svga-group-beardwrap" ><g id="svga-group-beard-single" ><path id="SvgjsPath9427" d="M100,18.13L100,18.13L100,18.13L100,18.13z" fill="#2a232b" stroke-width="none" opacity="1"></path></g></g><g id="svga-group-mustache-single" ><path id="SvgjsPath9976" d="M100,18.13L100,18.13L100,18.13L100,18.13z" fill="#2a232b" stroke-width="none" opacity="1"></path></g><g id="svga-group-hair-front" ><path id="SvgjsPath9968" d="M152.983 98.604c-4.563-12.435 0.717-31.506-8.205-45.615 -4.064-6.762-7.597-11.409-6.95-19.276l-0.368-0.124c-0.862 1.352-1.994 2.82-2.745 3.76 0.427-1.091 1.123-2.762 1.753-4.023l-0.332-0.218c-2.585 3.073-4.805 4.649-7.859 5.5 3.3-2.32 6.949-6.357 8.546-8.595l-0.271-0.284c-11.319 7.283-24.164 7.382-35.496 7.471 -10.227 0.076-16.579-0.155-23.953-4.441 -5.321 1.764-9.511 1.539-14.116-1.635 -14.414 27.947-8.01 13.957-16.627 65.764 -5.004-6.67-6.458-10.912-7.642-17.267 -0.313-2.027-0.619-5.154-0.429-7.215l-0.063-0.065c-4.452-9.77-6.553-15.333-5.495-34.712 0.785-8.04 2.533-14.076 7.574-20.398 -0.665-3.435-0.729-6.898-0.277-10.21 -2.64-4.827-4.457-9.795-5.165-11.57 3.688 2.823 3.993 2.986 7.07 3.957 0.704-1.937 1.73-3.861 2.387-4.865 0.297 2.238 0.533 3.75 1.203 5.925 0.228 0.055 1.313 0.349 1.66 0.442 -0.199-1.324-0.381-1.938-0.353-3.125 0.571 1.302 1.053 1.604 2.71 3.626 1.834 0.385 1.394 0.328 1.944 0.328 -2.669-4.183-4.47-7.885-4.927-13.515 3.653 2.081 8.764 3.27 14.101 3.27 12.539 0 25.369-9.412 43.169-9.412 15.425 0 28.771 8.558 34.683 18.303 -0.006-2.514-0.113-4.594 0.794-7.178 0 0 0.105 3.705 0.105 6.592l0.396 0.037c0.62-3.301 1.928-6.115 4.088-8.773 -1.918 5.158-1.188 2.404-3.334 8.702l0.348 0.187c1.431-1.839 2.603-3.139 6.019-4.862 -2.468 2.473-4.355 3.89-5.522 5.639l0.301 0.259c1.456-1.32 2.971-1.82 4.512-0.613 -2.481-0.902-3.946 0.679-5.648 2.675 6.619 1.091 10.21 4.91 14.864 10.015 10.712 12.352 13.533 24.411 7.723 41.506 2.435 5.263 2.06 17.125-3.375 26.686C159.779 86.867 155.941 93.789 152.983 98.604z" fill="#080806" stroke-width="none" opacity="1"></path><path id="SvgjsPath9969" d="M62.299 30.371c0.359 0.334 0.718 0.668 1.074 1.004 -0.129-0.085-0.258-0.164-0.388-0.253 -14.414 27.947-8.01 13.957-16.627 65.764 -5.004-6.67-6.458-10.912-7.642-17.267 -0.313-2.027-0.619-5.154-0.429-7.215l-0.063-0.065c-4.452-9.77-6.553-15.333-5.495-34.712 0.785-8.04 2.533-14.076 7.574-20.398 -0.654-3.378-0.72-6.782-0.293-10.044 0.597 0.874 1.223 1.725 1.863 2.565C42.304 12.374 42.669 14.933 42 17c-9.539 29.478-4 43 2 64 -2.464-15.931-7.142-36.185 5.619-48C44.168 46.096 45.673 52.034 47 61 47.917 49.082 52.195 37.996 62.299 30.371zM155.432 13.06c-0.376-0.412-0.742-0.812-1.106-1.207 -0.382 0.255-0.774 0.489-1.159 0.737 14.956 30.661 0.594 27.717 4.017 41.409C161.183 63.999 156 70 156 80c0-15-0.681-25.439-8.96-37.175 -2.796-3.963-3.581-17.423-5.465-24.074C118.373 33 84.002 35.981 47.916 7.183c17 6 51.649 1.35 63.543-6.316 -13.558 2.461-41.862 2.608-54.59-2.631 30.5-2.37 30.131-12.16 56.131-14C100.5-20.431 73.196-8.51 60.658-8.51c-5.336 0-10.447-1.188-14.101-3.27 0.457 5.63 2.258 9.333 4.927 13.515 -0.551 0-0.11 0.057-1.944-0.328 -1.658-2.022-2.14-2.325-2.71-3.626 -0.029 1.187 0.154 1.801 0.353 3.125 -0.347-0.093-1.433-0.387-1.66-0.442 -0.67-2.175-0.906-3.687-1.203-5.925 -0.656 1.004-1.683 2.928-2.387 4.865 -3.078-0.971-3.382-1.134-7.07-3.957 0.708 1.775 2.525 6.744 5.165 11.57 -0.007 0.055-0.009 0.111-0.016 0.166 6.305 9.235 15.169 16.471 23.363 24.192 4.454 2.924 8.558 3.096 13.729 1.382 7.374 4.286 13.727 4.517 23.953 4.441 11.332-0.088 24.177-0.188 35.496-7.471l0.271 0.284c-1.597 2.238-5.246 6.275-8.546 8.595 3.055-0.852 5.274-2.428 7.859-5.5l0.332 0.218c-0.63 1.262-1.326 2.932-1.753 4.023 0.751-0.94 1.883-2.408 2.745-3.76l0.368 0.124c-0.646 7.868 2.886 12.514 6.95 19.276 8.922 14.109 3.643 33.181 8.205 45.615 2.958-4.815 6.796-11.736 6.796-17.352 5.435-9.561 5.81-21.423 3.375-26.686C168.965 37.471 166.144 25.412 155.432 13.06zM156.165 38.709c-0.33-9.524-6.633-21.612-6.633-21.612 -2.946-5.204-5.579-7.687-9.996-8.695 12.426 0.619 17.306 19.179 16.769 28.875C156.254 38.177 156.165 38.709 156.165 38.709zM127.907-1.507c3.283 2.663 4.067 3.423 7.296 7.909 -16.653-29.889-49.333-7.27-59.667-8C86.041 0.573 109.793-14.79 127.907-1.507zM136.369 11.485C116.408 28.033 85.929 21.023 61 13.21 85.827 24.581 117.435 30.734 136.369 11.485zM57.869 29.485c-6.539 3.425-9.616 12.05-9.9 17.75C49.19 42.316 52.854 33.291 57.869 29.485zM49.619 24.735c-9.359 5.699-11.174 18.771-10.25 29.75C40.353 44.343 42.181 31.11 49.619 24.735zM117.064 12.34c-1.006 0.215-7.259 1.072-10.672 1.195 -2.661 0.155-13.037 0.328-22.391-0.048 9.655 2.069 15.454 2.454 22.496 2.045 8.106-0.293 15.36-1.898 21.371-6.796C123.633 11.067 121.828 11.399 117.064 12.34zM150.609 38.885c0 0-0.256-0.441-0.588-1.102 -0.911-1.527-1.945-5.681-5.938-18.736 2.966 24.195 7.817 19.782 9.991 32.283C154.075 46.834 153.761 44.529 150.609 38.885z" fill="#000000" stroke-width="none" opacity="1"></path><path id="SvgjsPath9970" d="M157.853 68.131c0.364-3.246 0.217-1.758 0.257-3.61 0.306-6.244-3.426-11.479-1.154-18.987 1.854-5.453 2.925-6.308 2.113-15.801 -0.119-1.37-0.474-4.774-1.102-5.998 0.856 1.489 1.422 4.245 1.725 5.934 1.687 9.543 0.268 10.992-1.521 16.267C155.781 53.906 160.368 57.422 157.853 68.131zM141.575 18.751c1.117 30.37 7.276 23.316 12.717 41.752C150.598 38.757 147.181 56.786 141.575 18.751zM48.369 34.235c-9.19 11.563-8.262 19.899-6 37C42.165 53.925 40.055 47.355 48.369 34.235zM41.772 17.714c-5.274 16.319-6.429 23.684-3.897 41.285C37.406 41.353 37.518 37.458 41.772 17.714zM61.952 30.641C52.322 37.56 47.295 50.217 47 61 48.482 50.695 54.012 37.697 61.952 30.641zM128.855 24.594c-12.051 4.437-31.667 5.625-45.988 1.322C71.706 22.661 54.279 11.723 44.905 4.845c8.498 6.765 23.471 16.807 33.926 20.776 10.863 4.059 27.887 5.567 41.081 2.245 9.248-2.324 14.041-4.52 21.663-9.114C138.182 20.612 133.184 23.242 128.855 24.594zM102.813-11.594c12.167-2.285 26.509 5.558 34.057 14.83 -7.897-11.318-20.837-16.949-28.562-17.083C95.629-14.067 82.513-3.204 56.869-2.265 80.982-1.203 92.573-9.936 102.813-11.594zM112.369 1.235c-17.289 6.143-30.64 7.613-48.807 8.58C82.325 10.97 95.739 9.15 112.369 1.235zM130.536 4.738c-10.662 5.027-15.33 5.851-37.337 7.191C106.996 12.486 119.885 11.769 130.536 4.738zM95.248 20.023c10.644 1.237 29.289-0.105 38.621-9.788 -11.27 9.494-32.119 9.154-48.38 8.508C91.713 19.714 90.59 19.552 95.248 20.023zM140.869 10.735c7.629 2.809 9.489 16.193 12.5 27C152.022 28.156 149.721 12.813 140.869 10.735z" fill="#171714" stroke-width="none" opacity="1"></path><path id="SvgjsPath9971" d="M155.579 12.925c-4.348-4.769-8.252-8.97-14.63-10.02 2.094-2.463 3.566-3.379 6.25-1.85 -1.59-1.871-3.417-2.226-5.63-0.22 1.271-1.905 3.468-3.46 6.3-6.43 -4.231 1.985-5.503 3.34-7.12 5.42 2.285-6.703 1.3-3.128 3.72-9.75 -2.529 2.836-4.146 5.92-4.859 9.72 0-5.903-0.185-5.14-0.07-7.72 -1.387 3.089-1.229 5.81-1.229 7.59 -2.233-3.682-5.514-6.8-9.051-9.35 -25.054-18.289-50.039-1.456-63.58 0.58 -5.489 0.927-13.714 0.338-19.35-3.04 0.398 5.764 2.183 9.592 4.79 13.68 -0.001 0-1.47-0.31-1.47-0.31 -2.019-2.434-2.214-2.356-2.96-4.33 -0.191 1.763 0.101 2.74 0.25 3.74 -0.498-0.13-0.957-0.268-1.26-0.34 -0.743-2.414-0.958-4.25-1.23-6.29 -0.614 0.785-1.922 3.18-2.64 5.15 -2.999-0.948-3.214-1.099-7.43-4.33 0.5 1 2.309 6.461 5.44 12.23 -0.47 3.534-0.328 7.06 0.27 10.12 -5.025 6.312-6.77 12.346-7.56 20.44 -1.041 19.059 0.867 24.611 5.53 34.82 0.01 0.01 0.01 0.03 0.02 0.04 -0.177 1.971 0.119 5.102 0.44 7.18 1.179 6.332 2.625 10.693 7.91 17.65 0.02 0.02 0.03 0.05 0.05 0.07 3.395-20.368 3.045-20.867 3.77-25.89 3.572-25.712 3.417-21.872 12.81-40.07 3.813 2.628 8.035 3.552 14.02 1.56 4.342 2.524 8.776 4.45 21.06 4.45 12.171-0.152 26.176 0.412 38.52-7.53 -1.87 2.622-6.118 7.154-9.46 9.18 3.479-0.736 5.975-2.137 9.09-5.84 -0.957 1.915-2.083 4.814-2.17 5.16 0.15-0.18 2.15-2.57 3.51-4.7 -0.653 7.945 2.894 12.597 6.98 19.4 8.956 14.163 3.511 33.521 8.33 45.96 3.09-4.996 7.04-12.086 7.04-17.75 5.21-9.086 5.956-21.111 3.39-26.75C168.587 38.924 167.533 26.708 155.579 12.925zM46.789-2.465c0.488 1.389 0.595 1.359 2.49 3.61 -0.94-0.195-1.565-0.332-2.13-0.46C46.93-0.371 46.789-1.375 46.789-2.465zM44.279-5.125c0.094 1.532 0.459 3.542 0.99 5.31 -2.865-0.737-1.8-0.504-2.8-0.8C43.292-3.089 43.602-3.715 44.279-5.125zM45.999 95.095c-4.216-7.605-5.323-10.191-6.49-17.89 -0.114-0.886-0.472-3.446-0.49-4.67 -6.07-13.88-8.352-40.236 1.21-54.74 0-0.01 0-0.01 0-0.01s0.399-0.624 1.12-1.52c-0.267-1.344-0.531-4.18-0.44-7.28 0.74 1.32 1.58 2.52 2.33 3.67 0-0.003 0.59 0.781 0.59 0.8 4.551 5.79 8.754 10.604 18.92 17.75C50.544 50.979 51.301 44.3 45.999 95.095zM163.639 48.206c-0.356 2.358-1.123 5.583-1.539 6.99 2.78 7.068-0.257 20.417-3.061 26.38 -1.226 7.093-2.545 8.521-6.01 15.59 -2.477-11 2.583-30.519-6.76-45.08 -6.059-10.044-8.657-11.36-7.23-23.77 0 0 0.061-0.675 0.08-0.85 -12.628 7.721-26.576 8.594-44.97 8.2 -5.317 0-12.5-0.668-16.98-3.44 -9.081 2.583-12.45-1.437-20.01-7.34 -8.163-6.937-13.709-12.994-20.55-27.27 3.843 3.118 11.537 4.689 16.39 5.5 -3.273-4.363-5.199-8.349-6.07-14 3.48 2.32 11.82 4.603 19.17 3.79 13.534-1.271 32.484-15.167 55.77-4.63 10.804 4.767 16.286 11.476 17.57 15 0.01 0 0.02 0.01 0.04 0.01 0.06 0.02 0.12 0.03 0.189 0.04 0.017 0.018 0.332 0.09 0.36 0.09 6.976 2.325 7.443 2.759 14.2 10.64C158.026 18.715 167.168 28.016 163.639 48.206z" fill="#000000" stroke-width="none" opacity="1"></path></g><g id="svga-group-glasses-single" ><path id="SvgjsPath9782" d="M100,18.13L100,18.13L100,18.13L100,18.13z" fill="#000000" stroke-width="none" opacity="1"></path></g></g></g><rect id="SvgjsRect8956" width="200" height="15" x="0" y="185" fill="#ecf0f1" opacity="0.5" style="display:none;"></rect><text id="SvgjsText8957" font-family="&quot;Roboto&quot;, &quot;Helvetica Neue&quot;, Helvetica, Arial, sans-serif" style="font-size:0.84em;font-family:&quot;Roboto&quot;, &quot;Helvetica Neue&quot;, Helvetica, Arial, sans-serif;text-anchor:middle;font-weight:400;display:none;" font-size="0.84em" text-anchor="middle" font-weight="400" fill="#000000" x="100" y="185"><tspan id="SvgjsTspan8958" dy="1.2em" x="100" style="font-size:0.84em;font-family:&quot;Roboto&quot;, &quot;Helvetica Neue&quot;, Helvetica, Arial, sans-serif;text-anchor:middle;font-weight:400;">Created on AvatarMaker.com</tspan></text></g><defs id="SvgjsDefs8921"><radialGradient id="SvgjsRadialGradient8972" cx="100" cy="114" r="41" gradientUnits="userSpaceOnUse" class="svga-on-canvas-facehighlight-gradient-single-0"><stop id="SvgjsStop8973" stop-opacity="0.5" stop-color="#ffffff" offset="0" ></stop><stop id="SvgjsStop8974" stop-opacity="0" stop-color="#ffffff" offset="0.9" ></stop></radialGradient><radialGradient id="SvgjsRadialGradient8976" cx="100" cy="54" r="37" gradientUnits="userSpaceOnUse" class="svga-on-canvas-facehighlight-gradient-single-1"><stop id="SvgjsStop8977" stop-opacity="0.5" stop-color="#ffffff" offset="0" ></stop><stop id="SvgjsStop8978" stop-opacity="0" stop-color="#ffffff" offset="0.9" ></stop></radialGradient><radialGradient id="SvgjsRadialGradient9631" cx="129.041" cy="83.945" r="15.117" gradientTransform="matrix(-0.9945 0.1042 0.1042 0.9945 192.8281 -12.4633)" gradientUnits="userSpaceOnUse" class="svga-on-canvas-eyesback-gradient-left-0"><stop id="SvgjsStop9632" stop-opacity="1" stop-color="#ffffff" offset="0" ></stop><stop id="SvgjsStop9633" stop-opacity="1" stop-color="#fcfdfd" offset="0.315" ></stop><stop id="SvgjsStop9634" stop-opacity="1" stop-color="#f4f7f8" offset="0.504" ></stop><stop id="SvgjsStop9635" stop-opacity="1" stop-color="#e5ecef" offset="0.66" ></stop><stop id="SvgjsStop9636" stop-opacity="1" stop-color="#d8e2e7" offset="0.76" ></stop></radialGradient><radialGradient id="SvgjsRadialGradient9638" cx="128.643" cy="83.986" r="15.116" gradientTransform="matrix(0.9945 0.1042 -0.1042 0.9945 7.1738 -12.4633)" gradientUnits="userSpaceOnUse" class="svga-on-canvas-eyesback-gradient-right-0"><stop id="SvgjsStop9639" stop-opacity="1" stop-color="#ffffff" offset="0" ></stop><stop id="SvgjsStop9640" stop-opacity="1" stop-color="#fcfdfd" offset="0.316" ></stop><stop id="SvgjsStop9641" stop-opacity="1" stop-color="#f4f7f8" offset="0.505" ></stop><stop id="SvgjsStop9642" stop-opacity="1" stop-color="#e5ecef" offset="0.661" ></stop><stop id="SvgjsStop9643" stop-opacity="1" stop-color="#d8e2e7" offset="0.76" ></stop></radialGradient><radialGradient id="SvgjsRadialGradient9645" cx="129.041" cy="83.945" r="15.117" gradientTransform="matrix(-0.9945 0.1042 0.1042 0.9945 192.8281 -12.4633)" gradientUnits="userSpaceOnUse" class="svga-on-canvas-eyesfront-gradient-left-0"><stop id="SvgjsStop9646" stop-opacity="1" stop-color="#ffffff" offset="0" ></stop><stop id="SvgjsStop9647" stop-opacity="1" stop-color="#fcfdfd" offset="0.316" ></stop><stop id="SvgjsStop9648" stop-opacity="1" stop-color="#f4f7f8" offset="0.505" ></stop><stop id="SvgjsStop9649" stop-opacity="1" stop-color="#e5ecef" offset="0.661" ></stop><stop id="SvgjsStop9650" stop-opacity="1" stop-color="#d8e2e7" offset="0.76" ></stop></radialGradient><radialGradient id="SvgjsRadialGradient9654" cx="121.986" cy="82.496" fx="133.239" fy="82.527" r="16.003" gradientTransform="matrix(0.9998 0.0208 0.0166 -0.7998 -45.3195 145.9395)" gradientUnits="userSpaceOnUse" class="svga-on-canvas-eyesfront-gradient-left-3"><stop id="SvgjsStop9655" stop-opacity="1" stop-color="#f0d8d8" offset="0" ></stop><stop id="SvgjsStop9656" stop-opacity="0.3" stop-color="#f0d8d8" offset="0.7" ></stop><stop id="SvgjsStop9657" stop-opacity="0" stop-color="#ffffff" offset="1" ></stop></radialGradient><radialGradient id="SvgjsRadialGradient9659" cx="68.931" cy="105.995" r="29.524" gradientTransform="matrix(1.0336 0 0 1.0336 -1.6796 1.3127)" gradientUnits="userSpaceOnUse" class="svga-on-canvas-eyesfront-gradient-left-4"><stop id="SvgjsStop9660" stop-opacity="0" stop-color="#000000" offset="0.95" ></stop><stop id="SvgjsStop9661" stop-opacity="0.2" stop-color="#000000" offset="1" ></stop></radialGradient><radialGradient id="SvgjsRadialGradient9665" cx="128.643" cy="83.986" r="15.116" gradientTransform="matrix(0.9945 0.1042 -0.1042 0.9945 7.1738 -12.4633)" gradientUnits="userSpaceOnUse" class="svga-on-canvas-eyesfront-gradient-right-0"><stop id="SvgjsStop9666" stop-opacity="1" stop-color="#ffffff" offset="0" ></stop><stop id="SvgjsStop9667" stop-opacity="1" stop-color="#fcfdfd" offset="0.316" ></stop><stop id="SvgjsStop9668" stop-opacity="1" stop-color="#f4f7f8" offset="0.505" ></stop><stop id="SvgjsStop9669" stop-opacity="1" stop-color="#e5ecef" offset="0.661" ></stop><stop id="SvgjsStop9670" stop-opacity="1" stop-color="#d8e2e7" offset="0.76" ></stop></radialGradient><radialGradient id="SvgjsRadialGradient9674" cx="121.587" cy="82.496" fx="132.839" fy="82.527" r="16.003" gradientTransform="matrix(-0.9998 0.0208 -0.0166 -0.7998 244.5208 145.9478)" gradientUnits="userSpaceOnUse" class="svga-on-canvas-eyesfront-gradient-right-3"><stop id="SvgjsStop9675" stop-opacity="1" stop-color="#f0d8d8" offset="0" ></stop><stop id="SvgjsStop9676" stop-opacity="0.3" stop-color="#f0d8d8" offset="0.7" ></stop><stop id="SvgjsStop9677" stop-opacity="0" stop-color="#ffffff" offset="1" ></stop></radialGradient><radialGradient id="SvgjsRadialGradient9679" cx="69.316" cy="105.995" r="29.524" gradientTransform="matrix(-1.0336 0 0 1.0336 201.6796 1.3127)" gradientUnits="userSpaceOnUse" class="svga-on-canvas-eyesfront-gradient-right-4"><stop id="SvgjsStop9680" stop-opacity="0" stop-color="#000000" offset="0.95" ></stop><stop id="SvgjsStop9681" stop-opacity="0.2" stop-color="#000000" offset="1" ></stop></radialGradient><linearGradient id="SvgjsLinearGradient9712" x1="100" y1="142" x2="100" y2="139" gradientUnits="userSpaceOnUse" class="svga-on-canvas-mouth-gradient-single-0"><stop id="SvgjsStop9713" stop-opacity="1" stop-color="#f7ebeb" offset="0.1" ></stop><stop id="SvgjsStop9714" stop-opacity="1" stop-color="#f0d8d8" offset="1" ></stop></linearGradient><linearGradient id="SvgjsLinearGradient9751" x1="100" y1="172" x2="100" y2="123" gradientUnits="userSpaceOnUse" class="svga-on-canvas-chinshadow-gradient-single-0"><stop id="SvgjsStop9752" stop-opacity="0.8" stop-color="#f0d8d8" offset="0" ></stop><stop id="SvgjsStop9753" stop-opacity="1" stop-color="#d19292" offset="0.7" ></stop></linearGradient><linearGradient id="SvgjsLinearGradient9772" x1="130" y1="69" x2="130" y2="109" gradientUnits="userSpaceOnUse" class="svga-on-canvas-glasses-gradient-single-0"><stop id="SvgjsStop9773" stop-opacity="1" stop-color="#000000" offset="0" ></stop><stop id="SvgjsStop9774" stop-opacity="0.8" stop-color="#000000" offset="1" ></stop></linearGradient><linearGradient id="SvgjsLinearGradient9776" x1="130" y1="69" x2="130" y2="109" gradientTransform="matrix(-1 0 0 1 200 0)" gradientUnits="userSpaceOnUse" class="svga-on-canvas-glasses-gradient-single-1"><stop id="SvgjsStop9777" stop-opacity="1" stop-color="#000000" offset="0" ></stop><stop id="SvgjsStop9778" stop-opacity="0.8" stop-color="#000000" offset="1" ></stop></linearGradient><radialGradient id="SvgjsRadialGradient9922" cx="-568.659" cy="-521.042" r="59.751" gradientTransform="matrix(0.096 -0.0248 0.0245 0.0961 141.2814 119.9893)" gradientUnits="userSpaceOnUse" class="svga-on-canvas-eyesiris-gradient-left-1"><stop id="SvgjsStop9923" stop-opacity="1" stop-color="#ffffff" offset="0" ></stop><stop id="SvgjsStop9924" stop-opacity="0" stop-color="#ffffff" offset="1" ></stop></radialGradient><radialGradient id="SvgjsRadialGradient9926" cx="-582.838" cy="-519.099" r="59.745" gradientTransform="matrix(0.0991 8.856319e-004 -0.0011 0.0991 131.1134 135.9855)" gradientUnits="userSpaceOnUse" class="svga-on-canvas-eyesiris-gradient-left-2"><stop id="SvgjsStop9927" stop-opacity="1" stop-color="#ffffff" offset="0" ></stop><stop id="SvgjsStop9928" stop-opacity="0" stop-color="#ffffff" offset="1" ></stop></radialGradient><linearGradient id="SvgjsLinearGradient9932" x1="122.67" y1="88.268" x2="123.606" y2="87.152" gradientTransform="matrix(1 0 0 1 -52 0)" gradientUnits="userSpaceOnUse" class="svga-on-canvas-eyesiris-gradient-left-5"><stop id="SvgjsStop9933" stop-opacity="1" stop-color="#ffffff" offset="0" ></stop><stop id="SvgjsStop9934" stop-opacity="0" stop-color="#ffffff" offset="1" ></stop></linearGradient><linearGradient id="SvgjsLinearGradient9936" x1="127.212" y1="82.296" x2="126.463" y2="83.189" gradientTransform="matrix(1 0 0 1 -52 0)" gradientUnits="userSpaceOnUse" class="svga-on-canvas-eyesiris-gradient-left-6"><stop id="SvgjsStop9937" stop-opacity="1" stop-color="#ffffff" offset="0" ></stop><stop id="SvgjsStop9938" stop-opacity="0" stop-color="#ffffff" offset="1" ></stop></linearGradient><linearGradient id="SvgjsLinearGradient9940" x1="129.636" y1="79.822" x2="127.91" y2="81.879" gradientTransform="matrix(1 0 0 1 -52 0)" gradientUnits="userSpaceOnUse" class="svga-on-canvas-eyesiris-gradient-left-7"><stop id="SvgjsStop9941" stop-opacity="1" stop-color="#ffffff" offset="0" ></stop><stop id="SvgjsStop9942" stop-opacity="0" stop-color="#ffffff" offset="1" ></stop></linearGradient><radialGradient id="SvgjsRadialGradient9945" cx="-568.654" cy="-521.042" r="59.752" gradientTransform="matrix(0.096 -0.0248 0.0245 0.0961 193.2804 119.9894)" gradientUnits="userSpaceOnUse" class="svga-on-canvas-eyesiris-gradient-right-1"><stop id="SvgjsStop9946" stop-opacity="1" stop-color="#ffffff" offset="0" ></stop><stop id="SvgjsStop9947" stop-opacity="0" stop-color="#ffffff" offset="1" ></stop></radialGradient><radialGradient id="SvgjsRadialGradient9949" cx="-582.833" cy="-519.102" r="59.747" gradientTransform="matrix(0.0991 8.856319e-004 -0.0011 0.0991 183.1126 135.9856)" gradientUnits="userSpaceOnUse" class="svga-on-canvas-eyesiris-gradient-right-2"><stop id="SvgjsStop9950" stop-opacity="1" stop-color="#ffffff" offset="0" ></stop><stop id="SvgjsStop9951" stop-opacity="0" stop-color="#ffffff" offset="1" ></stop></radialGradient><linearGradient id="SvgjsLinearGradient9955" x1="122.67" y1="88.268" x2="123.606" y2="87.152" gradientUnits="userSpaceOnUse" class="svga-on-canvas-eyesiris-gradient-right-5"><stop id="SvgjsStop9956" stop-opacity="1" stop-color="#ffffff" offset="0" ></stop><stop id="SvgjsStop9957" stop-opacity="0" stop-color="#ffffff" offset="1" ></stop></linearGradient><linearGradient id="SvgjsLinearGradient9959" x1="127.212" y1="82.296" x2="126.463" y2="83.189" gradientUnits="userSpaceOnUse" class="svga-on-canvas-eyesiris-gradient-right-6"><stop id="SvgjsStop9960" stop-opacity="1" stop-color="#ffffff" offset="0" ></stop><stop id="SvgjsStop9961" stop-opacity="0" stop-color="#ffffff" offset="1" ></stop></linearGradient><linearGradient id="SvgjsLinearGradient9963" x1="129.636" y1="79.822" x2="127.91" y2="81.879" gradientUnits="userSpaceOnUse" class="svga-on-canvas-eyesiris-gradient-right-7"><stop id="SvgjsStop9964" stop-opacity="1" stop-color="#ffffff" offset="0" ></stop><stop id="SvgjsStop9965" stop-opacity="0" stop-color="#ffffff" offset="1" ></stop></linearGradient></defs></svg>