<?xml version="1.0" encoding="UTF-8"?>
<svg xmlns="http://www.w3.org/2000/svg" xmlns:xlink="http://www.w3.org/1999/xlink" viewBox="0 0 64 64" width="64px" height="64px">
<g id="surface65519105">
<path style=" stroke:none;fill-rule:nonzero;fill:rgb(49.803922%,53.333336%,56.078434%);fill-opacity:1;" d="M 21.582031 7 C 13.542969 7 7 13.546875 7 21.585938 L 7 42.417969 C 7 50.457031 13.546875 57 21.585938 57 L 42.417969 57 C 50.457031 57 57 50.453125 57 42.414062 L 57 21.582031 C 57 13.542969 50.453125 7 42.414062 7 Z M 47 15 C 48.105469 15 49 15.894531 49 17 C 49 18.105469 48.105469 19 47 19 C 45.894531 19 45 18.105469 45 17 C 45 15.894531 45.894531 15 47 15 Z M 32 19 C 39.171875 19 45 24.828125 45 32 C 45 39.171875 39.167969 45 32 45 C 24.828125 45 19 39.167969 19 32 C 19 24.832031 24.828125 19 32 19 Z M 32 23 C 27.027344 23 23 27.027344 23 32 C 23 36.972656 27.027344 41 32 41 C 36.972656 41 41 36.972656 41 32 C 41 27.027344 36.972656 23 32 23 Z M 32 23 "/>
</g>
</svg>
