<?xml version="1.0" encoding="UTF-8"?>
<svg xmlns="http://www.w3.org/2000/svg" xmlns:xlink="http://www.w3.org/1999/xlink" viewBox="0 0 30 30" width="30px" height="30px">
<g id="surface65565883">
<path style=" stroke:none;fill-rule:nonzero;fill:rgb(49.803922%,53.333336%,56.078434%);fill-opacity:1;" d="M 15 3 C 8.371094 3 3 8.371094 3 15 C 3 20.085938 6.164062 24.425781 10.628906 26.175781 C 10.523438 25.226562 10.425781 23.769531 10.667969 22.730469 C 10.886719 21.796875 12.074219 16.765625 12.074219 16.765625 C 12.074219 16.765625 11.71875 16.046875 11.71875 14.984375 C 11.71875 13.316406 12.683594 12.070312 13.886719 12.070312 C 14.910156 12.070312 15.40625 12.839844 15.40625 13.761719 C 15.40625 14.792969 14.75 16.332031 14.410156 17.757812 C 14.128906 18.953125 15.011719 19.925781 16.1875 19.925781 C 18.320312 19.925781 19.960938 17.675781 19.960938 14.429688 C 19.960938 11.558594 17.898438 9.550781 14.949219 9.550781 C 11.535156 9.550781 9.53125 12.109375 9.53125 14.757812 C 9.53125 15.789062 9.929688 16.894531 10.425781 17.496094 C 10.523438 17.613281 10.535156 17.71875 10.507812 17.839844 C 10.414062 18.21875 10.214844 19.035156 10.175781 19.199219 C 10.121094 19.421875 10 19.46875 9.773438 19.359375 C 8.273438 18.664062 7.335938 16.472656 7.335938 14.710938 C 7.335938 10.925781 10.085938 7.449219 15.265625 7.449219 C 19.429688 7.449219 22.664062 10.414062 22.664062 14.382812 C 22.664062 18.515625 20.054688 21.84375 16.4375 21.84375 C 15.222656 21.84375 14.078125 21.214844 13.6875 20.46875 C 13.6875 20.46875 13.085938 22.757812 12.9375 23.320312 C 12.667969 24.363281 11.9375 25.667969 11.445312 26.464844 C 12.570312 26.8125 13.761719 27 15 27 C 21.628906 27 27 21.628906 27 15 C 27 8.371094 21.628906 3 15 3 Z M 15 3 "/>
</g>
</svg>
