<?xml version="1.0" encoding="UTF-8"?>
<svg xmlns="http://www.w3.org/2000/svg" xmlns:xlink="http://www.w3.org/1999/xlink" viewBox="0 0 30 30" width="30px" height="30px">
<g id="surface65585685">
<path style=" stroke:none;fill-rule:nonzero;fill:rgb(49.803922%,53.333336%,56.078434%);fill-opacity:1;" d="M 15.21875 5 C 16.113281 5 19.140625 5.242188 20.566406 8.335938 C 21.042969 9.367188 20.925781 11.179688 20.828125 12.632812 L 20.824219 12.695312 C 20.8125 12.898438 20.800781 13.09375 20.789062 13.28125 C 20.8125 13.304688 20.992188 13.476562 21.40625 13.492188 C 21.71875 13.480469 22.078125 13.382812 22.472656 13.203125 C 22.589844 13.152344 22.71875 13.140625 22.804688 13.140625 C 22.941406 13.140625 23.074219 13.164062 23.1875 13.210938 L 23.195312 13.214844 C 23.511719 13.324219 23.722656 13.539062 23.726562 13.765625 C 23.730469 13.980469 23.5625 14.300781 22.738281 14.617188 C 22.652344 14.648438 22.546875 14.683594 22.429688 14.71875 C 21.957031 14.863281 21.246094 15.082031 21.027344 15.578125 C 20.910156 15.851562 20.945312 16.183594 21.140625 16.5625 C 21.144531 16.566406 21.144531 16.570312 21.148438 16.574219 C 21.207031 16.710938 22.628906 19.851562 25.808594 20.359375 C 25.925781 20.378906 26.011719 20.480469 26.003906 20.59375 C 26 20.636719 25.988281 20.679688 25.972656 20.722656 C 25.839844 21.019531 25.25 21.441406 23.179688 21.75 C 23.011719 21.777344 22.945312 21.988281 22.847656 22.4375 C 22.808594 22.597656 22.773438 22.757812 22.722656 22.925781 C 22.675781 23.070312 22.582031 23.140625 22.425781 23.140625 L 22.398438 23.140625 C 22.289062 23.140625 22.132812 23.121094 21.9375 23.085938 C 21.585938 23.019531 21.195312 22.957031 20.695312 22.957031 C 20.402344 22.957031 20.101562 22.984375 19.800781 23.03125 C 19.179688 23.132812 18.652344 23.492188 18.09375 23.871094 C 17.28125 24.425781 16.445312 25 15.140625 25 C 15.085938 25 15.027344 24.996094 14.972656 24.996094 C 14.9375 24.996094 14.902344 25 14.863281 25 C 13.5625 25 12.722656 24.425781 11.914062 23.875 C 11.355469 23.492188 10.828125 23.128906 10.207031 23.03125 C 9.90625 22.984375 9.605469 22.957031 9.3125 22.957031 C 8.785156 22.957031 8.371094 23.035156 8.070312 23.09375 C 7.886719 23.128906 7.726562 23.15625 7.605469 23.15625 C 7.480469 23.15625 7.34375 23.132812 7.285156 22.933594 C 7.234375 22.765625 7.195312 22.601562 7.160156 22.441406 C 7.066406 22.03125 7.003906 21.777344 6.824219 21.753906 C 4.757812 21.445312 4.164062 21.023438 4.035156 20.722656 C 4.015625 20.679688 4.007812 20.636719 4.003906 20.59375 C 3.996094 20.480469 4.082031 20.378906 4.195312 20.359375 C 7.375 19.851562 8.800781 16.707031 8.859375 16.574219 C 8.859375 16.570312 8.863281 16.566406 8.863281 16.5625 C 9.058594 16.179688 9.097656 15.847656 8.976562 15.578125 C 8.761719 15.078125 8.050781 14.863281 7.578125 14.71875 C 7.464844 14.683594 7.351562 14.648438 7.265625 14.613281 C 6.328125 14.253906 6.25 13.886719 6.285156 13.699219 C 6.347656 13.378906 6.789062 13.152344 7.148438 13.152344 C 7.246094 13.152344 7.332031 13.171875 7.40625 13.203125 C 7.828125 13.394531 8.210938 13.492188 8.539062 13.492188 C 8.992188 13.492188 9.191406 13.308594 9.214844 13.28125 C 9.203125 13.074219 9.1875 12.859375 9.175781 12.632812 C 9.078125 11.179688 8.964844 9.371094 9.4375 8.339844 C 10.859375 5.246094 13.882812 5.003906 14.773438 5.003906 C 14.800781 5.003906 15.167969 5 15.167969 5 L 15.21875 5 M 15.21875 3 L 15.167969 3 C 15.152344 3 14.933594 3.003906 14.773438 3.007812 L 14.773438 3.003906 C 13.582031 3.003906 9.542969 3.328125 7.621094 7.503906 C 7.136719 8.554688 7.058594 9.859375 7.09375 11.152344 C 5.945312 11.175781 4.597656 11.933594 4.324219 13.3125 C 4.226562 13.820312 4.097656 15.539062 6.550781 16.484375 C 6.566406 16.488281 6.578125 16.492188 6.59375 16.496094 C 6.101562 17.199219 5.199219 18.175781 3.882812 18.386719 C 2.753906 18.5625 1.941406 19.558594 2.007812 20.707031 C 2.023438 20.992188 2.089844 21.257812 2.199219 21.511719 C 2.710938 22.679688 3.953125 23.214844 5.375 23.523438 C 5.683594 24.515625 6.554688 25.15625 7.609375 25.15625 C 7.914062 25.15625 8.1875 25.105469 8.433594 25.058594 C 8.703125 25.007812 8.972656 24.957031 9.3125 24.957031 C 9.5 24.957031 9.695312 24.972656 9.894531 25.003906 C 10.070312 25.03125 10.464844 25.300781 10.777344 25.519531 C 11.695312 26.144531 12.941406 26.996094 14.863281 26.996094 C 14.90625 26.996094 14.949219 26.996094 14.988281 26.996094 C 15.039062 27 15.089844 27 15.140625 27 C 17.054688 27 18.300781 26.152344 19.210938 25.53125 C 19.5625 25.289062 19.941406 25.03125 20.117188 25.003906 C 20.3125 24.972656 20.507812 24.957031 20.695312 24.957031 C 21.015625 24.957031 21.265625 24.992188 21.5625 25.050781 C 21.894531 25.113281 22.160156 25.140625 22.398438 25.140625 C 23.460938 25.140625 24.324219 24.507812 24.628906 23.523438 C 26.050781 23.214844 27.289062 22.6875 27.800781 21.53125 C 27.917969 21.261719 27.980469 20.992188 27.996094 20.722656 C 28.0625 19.566406 27.257812 18.570312 26.128906 18.386719 C 24.808594 18.175781 23.902344 17.199219 23.414062 16.496094 C 23.429688 16.492188 23.441406 16.488281 23.453125 16.480469 C 25.460938 15.714844 25.738281 14.429688 25.726562 13.730469 C 25.703125 12.660156 24.984375 11.730469 23.882812 11.335938 C 23.605469 11.222656 23.261719 11.152344 22.910156 11.140625 C 22.941406 9.867188 22.863281 8.539062 22.382812 7.496094 C 20.460938 3.324219 16.414062 3 15.21875 3 Z M 15.21875 3 "/>
</g>
</svg>
