<?xml version="1.0" encoding="UTF-8"?>
<svg xmlns="http://www.w3.org/2000/svg" xmlns:xlink="http://www.w3.org/1999/xlink" viewBox="0 0 50 50" width="50px" height="50px">
<g id="surface65589451">
<path style=" stroke:none;fill-rule:nonzero;fill:rgb(49.803922%,53.333336%,56.078434%);fill-opacity:1;" d="M 41 5 C 34.210938 4.992188 30.46875 8.796875 28.167969 16.210938 C 29.371094 15.765625 30.578125 15.214844 31.671875 15.214844 C 33.972656 15.214844 34.738281 16.070312 34.410156 18.726562 C 34.300781 20.386719 33.644531 23.066406 31.671875 26.164062 C 29.699219 29.152344 27.984375 30 27 30 C 25.796875 30 24.882812 28.269531 23.898438 23.621094 C 23.570312 22.292969 22.804688 19.304688 21.925781 13.664062 C 21.160156 8.464844 18.613281 5.667969 15 6 C 13.46875 6.109375 11.636719 7.535156 8.570312 10.191406 C 6.378906 12.183594 4.300781 13.621094 2 15.613281 L 4.191406 18.421875 C 6.269531 16.984375 7.476562 16.429688 7.804688 16.429688 C 9.335938 16.429688 10.757812 18.863281 12.183594 23.84375 C 13.386719 28.378906 14.699219 32.914062 15.90625 37.449219 C 17.765625 42.429688 20.066406 44.863281 22.695312 44.863281 C 27.074219 44.863281 32.328125 40.882812 38.570312 32.695312 C 44.699219 24.949219 47.78125 18.535156 48 14 C 48.21875 8.027344 45.816406 5.109375 41 5 Z M 41 5 "/>
</g>
</svg>
